<?xml version="1.0" encoding="utf-8"?>
<!-- Generator: Adobe Illustrator 28.1.0, SVG Export Plug-In . SVG Version: 6.00 Build 0)  -->
<svg version="1.1" xmlns="http://www.w3.org/2000/svg" xmlns:xlink="http://www.w3.org/1999/xlink" x="0px" y="0px"
	 viewBox="0 0 512 512" style="enable-background:new 0 0 512 512;" xml:space="preserve">
<style type="text/css">
	.st0{display:none;}
	.st1{display:inline;fill:#161616;}
	.st2{display:inline;fill:url(#SVGID_1_);}
	.st3{fill:url(#SVGID_00000005267850073576220230000013254084038036509624_);}
	.st4{fill:#1D1D1B;}
</style>
<g id="Ebene_1" class="st0">
	<path class="st1" d="M384,512H128C57.3,512,0,454.7,0,384V128C0,57.3,57.3,0,128,0h256c70.7,0,128,57.3,128,128v256
		C512,454.7,454.7,512,384,512z"/>
	<linearGradient id="SVGID_1_" gradientUnits="userSpaceOnUse" x1="109.3166" y1="171.4113" x2="402.5863" y2="340.7307">
		<stop  offset="0" style="stop-color:#FACA30"/>
		<stop  offset="1" style="stop-color:#F7B500"/>
	</linearGradient>
	<path class="st2" d="M64.3,251.5c2-7.8,7.1-13.5,12.2-19.3c27-30.8,57.5-57.4,93.9-76.8c25.5-13.6,52.4-22.4,81.6-23.2
		c28.4-0.8,55,6.4,80.4,18.6c35.1,16.8,64.9,40.8,91.5,68.9c6.1,6.4,12,13,17.6,19.9c8.3,10.1,8.3,23,0,33
		c-27.4,32.6-58.6,60.9-95.9,82c-23.5,13.3-48.4,22.3-75.4,24.7c-26,2.3-51.2-1.7-75.5-11.3c-34.4-13.5-63.9-34.5-90.5-59.8
		c-10.8-10.3-20.7-21.6-31.1-32.4c-4.2-4.4-7-9.6-8.8-15.3C64.3,257.5,64.3,254.5,64.3,251.5z M255.8,338.5
		c45.6,0.1,82.5-36.8,82.7-82.4c0.1-45.6-36.8-82.6-82.4-82.6c-45.7-0.1-82.6,36.7-82.6,82.4C173.3,301.5,210.1,338.4,255.8,338.5z
		 M315,256c0-32.5-26.6-59-59.1-59c-32.5,0-59,26.6-59,59.1c0,32.5,26.6,59,59.1,59C288.4,315,315,288.5,315,256z"/>
</g>
<g id="Ebene_1_Kopie">
	
		<linearGradient id="SVGID_00000129203979787778212960000006007888436151746972_" gradientUnits="userSpaceOnUse" x1="-6.2954" y1="104.5637" x2="518.2954" y2="407.4363">
		<stop  offset="0" style="stop-color:#FACA30"/>
		<stop  offset="1" style="stop-color:#F7B500"/>
	</linearGradient>
	<path style="fill:url(#SVGID_00000129203979787778212960000006007888436151746972_);" d="M384,512H128C57.3,512,0,454.7,0,384V128
		C0,57.3,57.3,0,128,0h256c70.7,0,128,57.3,128,128v256C512,454.7,454.7,512,384,512z"/>
	<path class="st4" d="M64.3,251.5c2-7.8,7.1-13.5,12.2-19.3c27-30.8,57.5-57.4,93.9-76.8c25.5-13.6,52.4-22.4,81.6-23.2
		c28.4-0.8,55,6.4,80.4,18.6c35.1,16.8,64.9,40.8,91.5,68.9c6.1,6.4,12,13,17.6,19.9c8.3,10.1,8.3,23,0,33
		c-27.4,32.6-58.6,60.9-95.9,82c-23.5,13.3-48.4,22.3-75.4,24.7c-26,2.3-51.2-1.7-75.5-11.3c-34.4-13.5-63.9-34.5-90.5-59.8
		c-10.8-10.3-20.7-21.6-31.1-32.4c-4.2-4.4-7-9.6-8.8-15.3C64.3,257.5,64.3,254.5,64.3,251.5z M255.8,338.5
		c45.6,0.1,82.5-36.8,82.7-82.4c0.1-45.6-36.8-82.6-82.4-82.6c-45.7-0.1-82.6,36.7-82.6,82.4C173.3,301.5,210.1,338.4,255.8,338.5z
		 M315,256c0-32.5-26.6-59-59.1-59c-32.5,0-59,26.6-59,59.1c0,32.5,26.6,59,59.1,59C288.4,315,315,288.5,315,256z"/>
</g>
</svg>
