<?xml version="1.0" encoding="UTF-8"?>
<svg id="uuid-79bd4410-962f-49d6-a926-e07c7bc610ff" data-name="Ebene 2" xmlns="http://www.w3.org/2000/svg" width="512" height="512" viewBox="0 0 512 512">
  <g id="uuid-e0ee20a0-2073-4d4a-a037-812c00596f60" data-name="Ebene 1">
    <rect width="512" height="512" fill="none" stroke-width="0"/>
    <g>
      <path d="M399.77,257.2c.06,64.48.16,128.95,0,193.43-.07,28.62-17.14,49.41-44.16,54.35-3.67.68-7.52.62-11.29.63-58.49.03-116.97-.63-175.44.32-26.36.42-56.25-17.27-56.35-54.94-.16-64.84-.06-129.67-.03-194.51,0-1.53-.48-3.27,1.69-5,2.22,4.13,4.08,7.99,6.28,11.64,20.18,33.34,49.44,53.72,88.35,57.35,32.39,3.02,65.2,3.47,97.51-.26,37.42-4.31,65.83-24.45,85.32-56.77,2.22-3.67,4.15-7.53,6.22-11.29.06-.12.33-.12.63-.2,2.12,1.3,1.27,3.49,1.27,5.26Z" stroke-width="0"/>
      <path d="M95.42,395.92c0,22.25.02,44.5-.01,66.75-.01,9.21-2.99,11.6-11.97,9.83-16.78-3.31-27.97-16.12-28.16-33.9-.37-33.73-.23-67.46-.05-101.2.06-11.95,7.51-18.88,19.41-18.97,3.78-.03,7.55-.03,11.33,0,7.57.06,9.44,1.91,9.45,9.66.04,19.56.01,39.12.01,58.67,0,3.05,0,6.1,0,9.15Z" stroke-width="0"/>
      <path d="M416.77,395.88c0-22.61-.02-45.23,0-67.84.01-7.89,1.68-9.56,9.4-9.61,4.5-.03,9-.12,13.49.05,8.85.33,15.65,6.61,16.65,15.34.37,3.2.6,6.44.6,9.66.04,29.61.08,59.22-.03,88.84-.02,5-.22,10.12-1.29,14.97-3.03,13.73-14.4,23.66-28.65,25.69-7.04,1-10.15-1.57-10.17-8.72-.05-22.79-.02-45.58-.02-68.38Z" stroke-width="0"/>
      <path d="M390.31,210.94c-2.81,40.28-30.07,75.91-68.45,88.51-12.28,4.03-24.94,5.26-37.78,5.31-9.36.04-18.72.01-30.49.01-14.66-.36-31.8,1.02-48.78-1.8-43.09-7.17-76.59-42.51-82.06-85.88-1.89-14.95-.43-28.72,9.89-40.43,8.12-9.22,18.39-14.26,30.78-14.52.86-.01,1.71-.03,2.58-.04,6.68-.12,13.39-.1,20.09.01.72,0,1.44.01,2.16.03.4,0,.79,0,1.15-.03h27.75c.53.06,1.12.07,1.8.06,1.11-.01,2.2-.04,3.31-.04,5.76-.09,11.54-.1,17.31-.07v-63.7h-15.83c-5.76,0-10.43-4.67-10.43-10.43V10.43c0-5.76,4.67-10.43,10.43-10.43h64.49c5.76,0,10.43,4.67,10.43,10.43v77.52c0,5.76-4.67,10.43-10.43,10.43h-15.44v63.68c6.34-.03,12.69-.01,19.04.12.52,0,1.04.01,1.56.03.48.01.91,0,1.31-.03h29.08s.46.01.46.01c.19,0,.37,0,.56-.01,3.14-.13,6.28-.06,9.42.01,3.36.06,6.7.1,10.01-.16,24.17-1.87,48.26,17.63,46.07,48.91Z" stroke-width="0"/>
    </g>
  </g>
</svg>