<?xml version="1.0" encoding="UTF-8"?>
<svg id="uuid-79bd4410-962f-49d6-a926-e07c7bc610ff" xmlns="http://www.w3.org/2000/svg" version="1.1" viewBox="0 0 512 512">
  <defs>
    <style>
      .cls-1 {
        fill: none;
      }

      .cls-1, .cls-2 {
        stroke-width: 0px;
      }

      .cls-2 {
        fill: #fff;
      }
    </style>
  </defs>
  <g id="uuid-e0ee20a0-2073-4d4a-a037-812c00596f60">
    <rect class="cls-1" width="512" height="512"/>
    <g>
      <path class="cls-2" d="M399.8,257.2c0,64.5.2,129,0,193.4,0,28.6-17.1,49.4-44.2,54.4-3.7.7-7.5.6-11.3.6-58.5,0-117-.6-175.4.3-26.4.4-56.2-17.3-56.3-54.9-.2-64.8,0-129.7,0-194.5,0-1.5-.5-3.3,1.7-5,2.2,4.1,4.1,8,6.3,11.6,20.2,33.3,49.4,53.7,88.3,57.4,32.4,3,65.2,3.5,97.5-.3,37.4-4.3,65.8-24.5,85.3-56.8,2.2-3.7,4.1-7.5,6.2-11.3,0-.1.3-.1.6-.2,2.1,1.3,1.3,3.5,1.3,5.3h0Z"/>
      <path class="cls-2" d="M95.4,395.9c0,22.2,0,44.5,0,66.8,0,9.2-3,11.6-12,9.8-16.8-3.3-28-16.1-28.2-33.9-.4-33.7-.2-67.5,0-101.2,0-12,7.5-18.9,19.4-19,3.8,0,7.6,0,11.3,0,7.6,0,9.4,1.9,9.4,9.7,0,19.6,0,39.1,0,58.7v9.1h0Z"/>
      <path class="cls-2" d="M416.8,395.9c0-22.6,0-45.2,0-67.8,0-7.9,1.7-9.6,9.4-9.6,4.5,0,9-.1,13.5,0,8.9.3,15.6,6.6,16.6,15.3.4,3.2.6,6.4.6,9.7,0,29.6,0,59.2,0,88.8,0,5-.2,10.1-1.3,15-3,13.7-14.4,23.7-28.6,25.7-7,1-10.1-1.6-10.2-8.7,0-22.8,0-45.6,0-68.4h0Z"/>
      <path class="cls-2" d="M390.3,210.9c-2.8,40.3-30.1,75.9-68.5,88.5-12.3,4-24.9,5.3-37.8,5.3-9.4,0-18.7,0-30.5,0-14.7-.4-31.8,1-48.8-1.8-43.1-7.2-76.6-42.5-82.1-85.9-1.9-14.9-.4-28.7,9.9-40.4,8.1-9.2,18.4-14.3,30.8-14.5.9,0,1.7,0,2.6,0,6.7-.1,13.4-.1,20.1,0,.7,0,1.4,0,2.2,0,.4,0,.8,0,1.1,0h27.8c.5,0,1.1,0,1.8,0,1.1,0,2.2,0,3.3,0,5.8,0,11.5-.1,17.3,0v-63.7h-15.8c-5.8,0-10.4-4.7-10.4-10.4V10.4c0-5.8,4.7-10.4,10.4-10.4h64.5c5.8,0,10.4,4.7,10.4,10.4v77.5c0,5.8-4.7,10.4-10.4,10.4h-15.4v63.7c6.3,0,12.7,0,19,.1.5,0,1,0,1.6,0,.5,0,.9,0,1.3,0h29.5c.2,0,.4,0,.6,0,3.1-.1,6.3,0,9.4,0,3.4,0,6.7.1,10-.2,24.2-1.9,48.3,17.6,46.1,48.9h0Z"/>
    </g>
  </g>
</svg>