<?xml version="1.0" encoding="UTF-8"?>
<svg id="uuid-ff25228a-1ef2-4ae2-9420-5da2b91c6e09" data-name="Ebene 2" xmlns="http://www.w3.org/2000/svg" width="512" height="512" viewBox="0 0 512 512">
  <g id="uuid-ab0cdbad-22e5-4b42-9209-237f328999e7" data-name="Ebene 1">
    <rect x="0" width="512" height="512" fill="none" stroke-width="0"/>
    <g>
      <path d="M256.17,211.18c67.73,0,135.46-.06,203.19.04,25.06.04,45.72,16.55,51.04,40.48,1.08,4.85,1.6,9.81,1.59,14.82-.04,22.11.03,44.22-.03,66.34-.08,33.63-22.26,55.75-55.94,55.76-133.67.02-267.34.03-401.01,0-26.59,0-46.9-15.18-53.15-39.52C.53,343.85,0,338.51,0,333.11c.02-22.11-.04-44.22.02-66.34.09-33.73,22.08-55.57,55.94-55.58,66.74-.02,133.47,0,200.21,0ZM421.71,263.09c-20.96.03-37.45,16.26-37.44,36.83.02,20.43,16.78,36.84,37.59,36.8,20.89-.04,37.26-16.31,37.23-36.99-.03-20.89-16.14-36.67-37.38-36.64ZM52.91,299.96c.04,20.63,16.5,36.79,37.46,36.76,20.76-.03,37.42-16.54,37.36-37.02-.06-20.51-16.66-36.64-37.66-36.61-21.15.03-37.19,15.96-37.16,36.88Z" stroke-width="0"/>
      <path d="M248.96,34.54c38.08,0,68.97-.25,99.84.08,23.88.26,45.58,6.8,62.94,24.32,5.7,5.75,9.69,12.61,13.4,19.68,15.36,29.28,30.71,58.57,46.05,87.86.83,1.59,1.7,3.17,2.32,4.85.86,2.31,0,3.43-2.55,3.08-15.47-2.13-31.03-.69-46.54-.89-4.99-.06-7.93-1.52-10.28-6.11-12.57-24.45-25.67-48.62-38.15-73.11-5.75-11.28-14.67-16.31-26.89-16.31-62.16-.02-124.33-.04-186.49.02-11.95.01-20.8,5.01-26.45,16.06-12.52,24.47-25.62,48.65-38.16,73.11-2.47,4.82-5.51,6.32-10.74,6.37-15.32.13-30.67-1.22-45.95.84-2.89.39-3.75-.67-2.72-3.33.36-.93.81-1.82,1.27-2.7,16.38-31.22,32.63-62.51,49.21-93.63,13.28-24.92,35.49-36.87,62.55-39.12,34.76-2.89,69.69-.33,97.35-1.06Z" stroke-width="0"/>
      <path d="M421.97,425.31c10.94,0,21.88.1,32.82-.04,4.28-.05,5.87,1.58,6.06,5.96.6,14.39-2.22,27.43-13.82,37.1-12.1,10.08-25.94,12.11-40.28,6.22-15.52-6.37-22.92-19.03-24.05-35.47-.95-13.76-.84-13.77,13.01-13.77,8.75,0,17.51,0,26.26,0Z" stroke-width="0"/>
      <path d="M90.75,425.3c10.74,0,21.48.13,32.22-.06,4.51-.08,6.33,1.49,6.48,6.18.75,22.38-9.27,38.67-27.66,44.44-24.22,7.59-49.58-9.87-50.4-35.23-.58-17.98-1.84-15.09,14.3-15.32,8.35-.12,16.71-.02,25.06-.02Z" stroke-width="0"/>
    </g>
  </g>
</svg>