<?xml version="1.0" encoding="UTF-8"?>
<svg id="uuid-e0f7bd3d-689e-41e8-bec8-af97fb529694" data-name="Ebene 2" xmlns="http://www.w3.org/2000/svg" width="512" height="512" viewBox="0 0 512 512">
  <g id="uuid-444628f1-cc0c-4376-8afe-132f6726c55b" data-name="Ebene 1">
    <path d="M422,332c-19.41,0-37.28,6.31-51.99,16.8l-13.33-13.33c-33.89-46.33-33.89-112.61,0-158.94l13.33-13.33c14.71,10.48,32.58,16.8,51.99,16.8,49.63,0,90-40.37,90-90S471.63,0,422,0s-90,40.37-90,90c0,19.41,6.31,37.28,16.8,51.99l-13.33,13.33c-46.34,33.9-112.6,33.9-158.94,0l-13.33-13.33c10.49-14.71,16.8-32.58,16.8-51.99C180,40.37,139.63,0,90,0S0,40.37,0,90s40.37,90,90,90c19.41,0,37.28-6.31,51.99-16.8l13.33,13.33c33.89,46.33,33.89,112.61,0,158.94l-13.33,13.33c-14.71-10.48-32.58-16.8-51.99-16.8-49.63,0-90,40.37-90,90s40.37,90,90,90,90-40.37,90-90c0-19.41-6.31-37.28-16.8-51.99l13.33-13.33c46.34-33.9,112.6-33.9,158.94,0l13.33,13.33c-10.49,14.71-16.8,32.58-16.8,51.99,0,49.63,40.37,90,90,90s90-40.37,90-90-40.37-90-90-90ZM422,30c33.09,0,60,26.91,60,60s-26.91,60-60,60c-11.09,0-21.37-3.23-30.29-8.5l30.29-30.29,4.39,4.39c5.86,5.86,15.35,5.86,21.21,0s5.86-15.35,0-21.21l-30-30c-5.86-5.86-15.35-5.86-21.21,0s-5.86,15.35,0,21.21l4.39,4.39-30.29,30.29c-5.27-8.92-8.5-19.19-8.5-30.29,0-33.09,26.91-60,60-60ZM141.5,120.29l-30.29-30.29,4.39-4.39c5.86-5.86,5.86-15.35,0-21.21s-15.35-5.86-21.21,0l-30,30c-5.86,5.86-5.86,15.35,0,21.21s15.35,5.86,21.21,0l4.39-4.39,30.29,30.29c-8.92,5.27-19.19,8.5-30.29,8.5-33.09,0-60-26.91-60-60s26.91-60,60-60,60,26.91,60,60c0,11.09-3.23,21.37-8.5,30.29ZM90,482c-33.09,0-60-26.91-60-60s26.91-60,60-60c11.09,0,21.37,3.23,30.29,8.5l-30.29,30.29-4.39-4.39c-5.86-5.86-15.35-5.86-21.21,0s-5.86,15.35,0,21.21l30,30c5.86,5.86,15.35,5.86,21.21,0s5.86-15.35,0-21.21l-4.39-4.39,30.29-30.29c5.27,8.92,8.5,19.2,8.5,30.29,0,33.09-26.91,60-60,60ZM422,482c-33.09,0-60-26.91-60-60,0-11.09,3.23-21.37,8.5-30.29l30.29,30.29-4.39,4.39c-5.86,5.86-5.86,15.35,0,21.21,2.93,2.93,6.77,4.39,10.61,4.39s7.68-1.46,10.61-4.39l30-30c5.86-5.86,5.86-15.35,0-21.21s-15.35-5.86-21.21,0l-4.39,4.39-30.29-30.29c8.92-5.27,19.2-8.5,30.29-8.5,33.09,0,60,26.91,60,60s-26.91,60-60,60Z" stroke-width="0"/>
    <rect width="512" height="512" fill="none" stroke-width="0"/>
  </g>
</svg>