<?xml version="1.0" encoding="UTF-8"?>
<svg id="uuid-97b4e57b-8c77-475a-bea9-12d552b22a15" data-name="Ebene 2" xmlns="http://www.w3.org/2000/svg" width="512" height="512" viewBox="0 0 512 512">
  <g id="uuid-0eb99908-4ae2-464e-903b-798e85ededeb" data-name="Ebene 1">
    <rect width="512" height="512" fill="none" stroke-width="0"/>
    <path d="M416.94,501.26H95.06c-.39-.25-.76-.63-1.18-.72-29.14-6.23-45.65-28.03-42.71-57.52,2.18-21.89,5.28-43.7,7.96-65.54,4-32.61,7.98-65.22,11.99-97.83,3.15-25.64,5.98-51.33,9.6-76.91,3.65-25.79,22.65-43.34,48.58-44.38,21.67-.86,43.41-.3,65.11-.36,1.87,0,3.73,0,5.73,0v-36.91c-11.76-1.98-23.36-3.24-34.6-5.96-48.58-11.72-88.25-36.67-115.76-79.3-3.63-5.63-5.33-11.3-1.91-17.47,3.32-5.99,8.89-7.59,15.41-7.59,128.49.05,256.99.05,385.48,0,6.53,0,12.09,1.62,15.4,7.61,3.41,6.17,1.7,11.85-1.94,17.47-28.47,43.99-69.63,69.06-119.96,80.25-9.9,2.2-20.07,3.22-30.4,4.83v37.08c1.86,0,3.57,0,5.28,0,20.27,0,40.54-.07,60.82.02,29.21.12,49.57,17.28,53.51,46.16,4.83,35.39,8.86,70.9,13.22,106.36,5.33,43.37,10.59,86.75,15.98,130.12,2.52,20.26-3.32,37.16-19.46,50.11-7.13,5.72-15.64,8.25-24.26,10.52ZM256.05,449.39c65.79-.09,119.74-54.11,119.68-119.85-.05-65.9-53.87-119.63-119.77-119.59-65.93.04-119.74,53.85-119.69,119.68.05,65.78,54.12,119.85,119.78,119.76ZM255.13,251.4c-43.14,0-78.11,34.97-78.11,78.11s34.97,78.11,78.11,78.11,78.11-34.97,78.11-78.11-34.97-78.11-78.11-78.11Z" stroke-width="0"/>
  </g>
</svg>