<?xml version="1.0" encoding="UTF-8"?>
<svg id="uuid-54b48e60-f037-457e-83b1-a29aaf8d6763" data-name="Ebene 2" xmlns="http://www.w3.org/2000/svg" width="512" height="512" viewBox="0 0 512 512">
  <g id="uuid-bc05b402-3782-4fab-ae98-a4cc94d2cba8" data-name="Ebene 1">
    <rect width="512" height="512" fill="none" stroke-width="0"/>
    <g>
      <path d="M510.41,255.85c-10.38,2.85-21.08,3.88-31.68,5.45-2.9.43-3-1.92-3.39-3.86-1.63-8.1-3.27-16.2-4.89-24.3-1.24-6.17-4.55-9.22-9-8.27-4.67.99-6.48,4.48-5.31,10.96,1.41,7.8,2.94,15.59,4.64,23.34.83,3.77-.25,5.33-4.18,5.92-43.14,6.47-86.26,13.08-129.38,19.65-.98.15-2,.08-2.96.31-3.87.96-5.05-.66-4.74-4.39.85-10.21,1.53-20.44,2.28-30.65,1.2-16.32,2.42-32.63,3.6-48.95.49-6.76.93-13.52,1.33-20.29.2-3.41,1.68-4.79,5.32-4.78,51.62.1,103.25.04,154.87.1,9.53.01,16.8,6.99,17.77,16.65,1.71,17.1,3.37,34.2,5.08,51.3.1.97.44,1.92.66,2.87,0,2.98,0,5.96,0,8.94Z" stroke-width="0"/>
      <path d="M261.11,1.59c8.35,3.57,11.63,9.92,11.37,18.93-.37,12.49-.08,12.5,12.39,12.5,16.55,0,33.09-.03,49.64.02,10.27.03,17.35,6.78,17.31,16.34-.04,9.68-6.91,16.11-17.45,16.11-52.12.03-104.24.03-156.36,0-10.45,0-17.49-6.52-17.55-16.06-.06-9.79,7.01-16.37,17.74-16.39,18.7-.03,37.39-.13,56.09.08,4.29.05,6.18-1.13,5.65-5.58-.26-2.12.13-4.31-.07-6.44-.89-9.23,2.97-15.65,11.3-19.49h9.93Z" stroke-width="0"/>
      <path d="M256.18,335.65c-12.74,0-25.49-.14-38.22.08-4.28.08-5.62-1.38-5.93-5.65-2.5-34.11-5.18-68.22-7.94-102.31-1.87-23.06-4.45-46.07-4.01-69.28.08-4.34,1.23-6.33,5.66-7.52,33.52-9,66.97-8.88,100.55-.37,4.56,1.15,5.88,3.17,5.95,7.82.37,22.88-2.09,45.56-3.94,68.29-1.52,18.61-2.8,37.24-4.25,55.86-1.27,16.31-2.71,32.61-3.89,48.92-.27,3.68-2.22,4.21-5.25,4.19-12.91-.07-25.81-.03-38.72-.03Z" stroke-width="0"/>
      <path d="M102.49,176.04c25.49,0,50.98.14,76.47-.12,5.13-.05,6.51,1.92,6.81,6.52,1.96,30.19,4.08,60.37,6.17,90.56.18,2.64.51,5.27.81,7.89.39,3.43-.75,4.81-4.47,4.21-12.24-1.98-24.51-3.71-36.77-5.57-31.7-4.81-63.39-9.74-95.12-14.36-4.72-.69-5.71-2.35-4.65-6.79,1.83-7.71,3.18-15.55,4.64-23.35,1.05-5.59-1.17-9.43-5.76-10.24-4.14-.73-7.56,2.22-8.66,7.6-1.66,8.1-3.47,16.17-4.81,24.32-.62,3.73-1.92,5.16-5.83,4.45-8.62-1.56-17.28-2.88-25.95-4.13-4.06-.59-3.94-3.31-3.65-6.24,1.04-10.53,2.09-21.05,3.16-31.58.87-8.55,1.88-17.09,2.65-25.64.97-10.76,8.1-17.5,18.99-17.52,25.32-.04,50.65-.01,75.97-.02Z" stroke-width="0"/>
      <path d="M247.78,478.65c-6.9-6.9-13.74-13.86-20.75-20.65-2.56-2.48-3.58-5.31-3.9-8.77-2.51-27.13-5.12-54.25-7.7-81.38-.39-4.11-.69-8.23-1.16-12.33-.39-3.42.96-4.72,4.44-4.71,24.97.09,49.95.09,74.92,0,3.53-.01,4.72,1.39,4.39,4.76-1.8,18.41-3.55,36.82-5.3,55.24-1.2,12.66-2.51,25.31-3.5,37.98-.3,3.87-1.45,6.87-4.29,9.59-6.93,6.63-13.63,13.5-20.42,20.28-.27-.24-.55-.49-.82-.73.01-25.28.02-50.57.05-75.85,0-2.17-.12-4.3-1.08-6.29-1.27-2.63-3.49-4.1-6.27-4.2-3.01-.1-5.38,1.41-6.76,4.2-.98,1.98-1.09,4.12-1.09,6.29.02,25.28.03,50.57.04,75.85-.27.24-.54.48-.81.72Z" stroke-width="0"/>
      <path d="M383.62,442.86c0,5.29-.11,10.59.04,15.87.09,2.9-.96,4.54-3.73,5.56-19.07,7.05-38.09,14.21-57.13,21.35-4.66,1.75-9.5.8-14.25.95-4.79.15-9.59.16-14.38-.03-2.13-.08-5.32,1.24-6.12-1.6-.9-3.2-1.55-6.93,1.21-9.86,2.83-3.01,5.63-6.09,8.76-8.76,3.39-2.88,4.95-6.38,5.33-10.7,1.34-15.3,2.84-30.58,4.15-45.88.52-6.04.78-6.43,6.4-5.03,21.48,5.36,42.94,10.82,64.45,16.06,3.82.93,5.65,2.49,5.35,6.7-.36,5.1-.08,10.25-.09,15.37Z" stroke-width="0"/>
      <path d="M128.66,442.41c0-5.29.09-10.59-.03-15.87-.07-2.87.77-4.55,3.83-5.3,22.46-5.52,44.91-11.11,67.32-16.85,4.87-1.25,4.68,1.75,4.96,4.85,1.38,15.46,2.84,30.91,4.18,46.38.38,4.32,1.88,7.86,5.31,10.7,2.66,2.2,4.77,5.08,7.44,7.27,3.53,2.9,3.13,6.63,2.92,10.43-.12,2.26-1.7,2.57-3.47,2.58-15.47.07-30.81,1.02-45.67-5.88-13.6-6.32-28.02-10.89-42.17-16.01-3.54-1.28-4.91-3.18-4.71-6.92.27-5.11.07-10.25.07-15.37Z" stroke-width="0"/>
      <path d="M256.3,80.7c9.27,0,18.53.02,27.8-.02,2.38,0,4.44.34,6.36,2.08,14.5,13.17,22.48,29.12,21.75,49.09-.15,4.1-1.58,4.82-5.09,3.88-16.06-4.31-32.53-6.23-49.06-6.44-17.22-.23-34.3,1.96-51.07,6.2-6.81,1.72-6.68,1.68-6.84-5.43-.46-19.45,7.93-34.73,21.93-47.5,1.78-1.62,3.74-1.88,5.93-1.88,9.43.02,18.87.01,28.3,0Z" stroke-width="0"/>
      <path d="M264.51,478.66c-.03,7.41,0,14.83-.1,22.24-.07,6.08-3.12,9.52-8.28,9.51-5.16,0-8.2-3.44-8.27-9.52-.09-7.41-.07-14.83-.09-22.24.27-.24.54-.48.81-.72,5.04,0,10.07,0,15.11,0,.27.24.55.49.82.73Z" stroke-width="0"/>
    </g>
  </g>
</svg>