<?xml version="1.0" encoding="UTF-8"?>
<svg id="uuid-101f23fe-6b0d-44af-b114-992e5358c6dc" data-name="Ebene 2" xmlns="http://www.w3.org/2000/svg" width="512" height="512" viewBox="0 0 512 512">
  <g id="uuid-d7ce9139-72ed-48c6-9519-3fb99468e265" data-name="Ebene 1">
    <rect x="0" width="512" height="512" fill="none" stroke-width="0"/>
    <path d="M512,334.73c-5.5,7.26-9.19,8.32-17.6,4.95-62.87-25.15-125.73-50.3-188.6-75.45-6.24-2.5-6.26-2.49-6.26,4.13,0,41.44.08,82.88-.11,124.32-.02,4.66,1.66,7.21,5.46,9.54,20.83,12.82,41.46,25.97,62.29,38.78,12.02,7.39,17.93,17.74,17.4,31.93-.32,8.31-.05,16.64-.06,24.96-.02,12.08-6.32,16.54-17.86,12.38-27.07-9.77-54.09-19.66-81.14-29.5-8.13-2.96-16.28-5.85-24.36-8.94-3.31-1.26-6.37-1.17-9.67.04-34.05,12.46-68.14,24.84-102.22,37.22-3.42,1.24-6.75,2.87-10.55,2.73-5.82-.21-10.35-4.13-10.45-9.93-.21-11.98-.6-24,.17-35.93.67-10.4,6.52-18.28,15.4-23.82,20.89-13.05,41.67-26.26,62.7-39.08,4.81-2.93,6.78-6.07,6.74-11.86-.27-41.11-.14-82.21-.15-123.32,0-6.05-.08-6.08-5.79-3.8-63.02,25.2-126.04,50.4-189.05,75.62-3.44,1.38-6.85,2.65-10.6,1.14-3.82-1.53-6.96-4.12-7.1-8.26-.35-10.79-1.35-21.68.53-32.37,2.53-14.4,10.05-25.92,22.08-34.35,61.6-43.16,123.2-86.33,184.89-129.36,3.69-2.58,5.18-5.28,5.14-9.8-.2-25.63.54-51.28-.28-76.88-.77-23.99,10.12-42.52,34.4-49.67h17.98c24.33,7.07,35.16,25.85,34.41,49.61-.82,25.92-.13,51.88-.25,77.82-.02,3.71,1.11,6.07,4.22,8.24,60,41.87,119.78,84.03,179.94,125.66,14.38,9.95,24.66,22.03,28.37,39.28v33.96Z" stroke-width="0"/>
  </g>
</svg>