<?xml version="1.0" encoding="utf-8"?>
<!-- Generator: Adobe Illustrator 28.3.0, SVG Export Plug-In . SVG Version: 6.00 Build 0)  -->
<svg version="1.1" id="Ebene_2_00000124874317973724699110000010871878701845445820_"
	 xmlns="http://www.w3.org/2000/svg" xmlns:xlink="http://www.w3.org/1999/xlink" x="0px" y="0px" viewBox="0 0 566.9 170.1"
	 style="enable-background:new 0 0 566.9 170.1;" xml:space="preserve">
<style type="text/css">
	.st0{fill:url(#M_00000036227513039071746700000009897717941200808579_);}
	.st1{fill:none;}
</style>
<g id="Logo">
	<g id="Schrift">
		<g id="MOST">
			<path d="M290.5,58.9l0.1,36.4l-7,0l-0.1-44.2l6.8,0c2.6,0,3.8,1.3,4.9,2.6l21,24.9l20.9-25.1c1-1.2,2.2-2.7,4.9-2.7l6.8,0
				l0.1,44.2l-7,0l-0.1-36.4l-22.8,27l-5.7,0L290.5,58.9L290.5,58.9L290.5,58.9z"/>
			<path d="M419.9,72.8c0.1,17.6-10.4,22.8-30.6,22.8c-20.2,0.1-30.7-5-30.7-22.6c-0.1-17.6,10.4-22.7,30.6-22.8
				C409.4,50.2,419.8,55.3,419.9,72.8L419.9,72.8z M412.6,72.8c0-13.8-8.1-15.9-23.4-15.9c-15.3,0-23.4,2.3-23.3,16
				c0,13.8,8.1,15.9,23.4,15.9C404.6,88.8,412.6,86.6,412.6,72.8z"/>
			<path d="M466.2,88.3c6.3,0,8.9-2.2,8.9-5.7c0-3.7-3-5.7-10.4-6.3l-21.6-1.7c-9.9-0.7-15.4-4.3-15.5-12c0-8.7,7-12,15.9-12
				l35.8-0.1l0,6.4L442.8,57c-5.1,0-8,1.6-8,5.4c0,3.4,2.3,5.2,10,5.8l20.9,1.6c10.4,0.8,16.7,4.1,16.7,12.5
				c0,7.4-4.9,12.3-16.7,12.4l-38.5,0.1l0-6.4L466.2,88.3L466.2,88.3L466.2,88.3L466.2,88.3z"/>
			<path d="M508.8,94.6l-0.1-37.7L485.9,57l0-6.5l52.7-0.2l0,6.5l-22.8,0.1l0.1,37.7L508.8,94.6L508.8,94.6L508.8,94.6z"/>
		</g>
		<g id="Robotics">
			<path d="M285.7,119.8h-1.1c-0.2,0-0.4-0.1-0.4-0.3l0-15.2c0-0.2,0.1-0.3,0.4-0.3l5.7,0c1.1,0,2,0.3,2.7,1c0.7,0.7,1,1.6,1,2.7
				v2.2c0,0.9-0.2,1.7-0.7,2.3s-1.1,1-1.9,1.2v0.1l2.9,6c0.1,0.3,0.1,0.4-0.2,0.4h-1.1c-0.3,0-0.5-0.1-0.6-0.3l-2.8-6h-3.3
				c-0.2,0-0.2,0.1-0.2,0.2l0,5.8C286,119.7,285.9,119.8,285.7,119.8L285.7,119.8L285.7,119.8z M286.2,112l3.7,0
				c1.4,0,2.1-0.7,2.1-2.1v-2.2c0-1.4-0.7-2.2-2.1-2.2l-3.7,0c-0.2,0-0.2,0.1-0.2,0.2l0,6.1C286,111.9,286.1,112,286.2,112
				L286.2,112L286.2,112z"/>
			<path d="M323.7,119.7h-3c-1.1,0-2-0.3-2.7-0.9s-1-1.5-1-2.7l0-8.6c0-1.2,0.3-2.1,1-2.7s1.5-1,2.7-1h3c1.1,0,2,0.3,2.7,1
				c0.7,0.7,1,1.6,1,2.7l0,8.6c0,1.1-0.3,2-1,2.7S324.9,119.7,323.7,119.7C323.7,119.7,323.7,119.7,323.7,119.7z M321,118.1h2.5
				c1.4,0,2.1-0.7,2.1-2.2l0-8.5c0-1.4-0.7-2.2-2.1-2.2h-2.5c-1.4,0-2.1,0.7-2,2.2l0,8.5C318.9,117.4,319.6,118.1,321,118.1
				L321,118.1z"/>
			<path d="M350.9,119.3l0-15.2c0-0.2,0.1-0.3,0.4-0.3l5.8,0c1.1,0,2,0.3,2.7,0.9c0.6,0.6,1,1.5,1,2.7v1.4c0,1.5-0.7,2.4-2.1,2.9
				c0.6,0.1,1.2,0.3,1.6,0.8c0.5,0.5,0.7,1.2,0.7,2v1.7c0,1.1-0.3,2-1,2.7s-1.5,1-2.7,1l-6,0C351,119.6,350.9,119.5,350.9,119.3
				L350.9,119.3L350.9,119.3z M353,110.8h3.8c1.5,0,2.2-0.7,2.2-2.1v-1.3c0-1.4-0.7-2.1-2.1-2.1h-3.9c-0.2,0-0.2,0.1-0.2,0.3l0,5.1
				C352.7,110.7,352.8,110.8,353,110.8L353,110.8L353,110.8z M353,118.1l4.1,0c1.4,0,2.1-0.7,2.1-2.1v-1.6c0-1.4-0.8-2.1-2.3-2.1
				H353c-0.2,0-0.2,0.1-0.2,0.2l0,5.4C352.7,118,352.8,118.1,353,118.1L353,118.1L353,118.1z"/>
			<path d="M390.8,119.5h-3c-1.1,0-2-0.3-2.7-0.9s-1-1.5-1-2.7l0-8.6c0-1.2,0.3-2.1,1-2.7s1.5-1,2.7-1h3c1.1,0,2,0.3,2.7,1
				c0.7,0.7,1,1.6,1,2.7l0,8.6c0,1.1-0.3,2-1,2.7C392.8,119.2,391.9,119.5,390.8,119.5L390.8,119.5L390.8,119.5z M388,117.9h2.5
				c1.4,0,2.1-0.7,2.1-2.2l0-8.5c0-1.4-0.7-2.2-2.1-2.2H388c-1.4,0-2.1,0.7-2,2.2l0,8.5C385.9,117.2,386.6,117.9,388,117.9
				L388,117.9z"/>
			<path d="M421.8,119.4h-1.1c-0.2,0-0.4-0.1-0.4-0.3l0-13.8c0-0.2-0.1-0.2-0.2-0.2h-3.4c-0.2,0-0.4-0.1-0.4-0.3v-0.9
				c0-0.2,0.1-0.3,0.4-0.3l9,0c0.2,0,0.4,0.1,0.4,0.3v0.9c0,0.2-0.1,0.3-0.4,0.3h-3.4c-0.2,0-0.2,0.1-0.2,0.2l0,13.8
				C422.2,119.3,422.1,119.4,421.8,119.4L421.8,119.4L421.8,119.4L421.8,119.4z"/>
			<path d="M450.3,103.7l0,15.2c0,0.2-0.1,0.3-0.4,0.3h-1.1c-0.2,0-0.4-0.1-0.4-0.3l0-15.2c0-0.2,0.1-0.3,0.4-0.3h1.1
				C450.1,103.4,450.3,103.5,450.3,103.7z"/>
			<path d="M480.6,119.2h-3c-1.1,0-2-0.3-2.7-0.9s-1-1.5-1-2.7l0-8.6c0-1.2,0.3-2.1,1-2.7s1.5-1,2.7-1h3c1.1,0,2,0.3,2.7,0.9
				s1,1.5,1,2.7v1.2c0,0.2-0.1,0.3-0.3,0.3h-1.1c-0.2,0-0.4-0.1-0.4-0.3V107c0-1.4-0.7-2.2-2.1-2.2h-2.6c-1.4,0-2.1,0.7-2,2.2l0,8.5
				c0,1.4,0.7,2.2,2.1,2.2h2.6c1.4,0,2.1-0.7,2.1-2.2v-1.1c0-0.2,0.1-0.3,0.3-0.3h1.1c0.2,0,0.4,0.1,0.4,0.3v1.2
				c0,1.2-0.3,2.1-1,2.7S481.7,119.2,480.6,119.2L480.6,119.2L480.6,119.2z"/>
			<path d="M507.3,115.5v-0.8c0-0.2,0.1-0.3,0.3-0.3h1.1c0.2,0,0.4,0.1,0.4,0.3v0.7c0,1.5,0.7,2.2,2.2,2.2h2.2
				c1.5,0,2.2-0.8,2.2-2.3v-0.8c0-1.2-1-2-3-2.3c-0.8-0.1-1.6-0.3-2.5-0.5s-1.5-0.6-2.1-1.2s-0.9-1.3-0.9-2.3v-1.2
				c0-1.1,0.3-2,1-2.7c0.6-0.7,1.5-1,2.7-1h2.8c1.1,0,2,0.3,2.7,1c0.7,0.7,1,1.6,1,2.7v0.6c0,0.2-0.1,0.4-0.3,0.4h-1.1
				c-0.2,0-0.3-0.1-0.3-0.4V107c0-1.5-0.7-2.2-2.2-2.2h-2.1c-1.5,0-2.2,0.8-2.2,2.4v1c0,0.8,0.6,1.4,1.7,1.7c0.5,0.1,1,0.2,1.6,0.4
				s1.2,0.2,1.8,0.4c0.6,0.2,1.2,0.4,1.7,0.6s0.9,0.6,1.2,1.2s0.5,1.2,0.5,1.9v1.1c0,1.1-0.3,2-1,2.7s-1.5,1-2.7,1H511
				c-1.1,0-2-0.3-2.7-1C507.6,117.5,507.3,116.6,507.3,115.5L507.3,115.5L507.3,115.5z"/>
		</g>
	</g>
	
		<linearGradient id="M_00000106828163146596547540000003618787357225087417_" gradientUnits="userSpaceOnUse" x1="61.5538" y1="645.4694" x2="210.5565" y2="731.4952" gradientTransform="matrix(1 0 0 1 0 -588.72)">
		<stop  offset="0" style="stop-color:#FFD500"/>
		<stop  offset="1" style="stop-color:#F9B000"/>
	</linearGradient>
	<polygon id="M" style="fill:url(#M_00000106828163146596547540000003618787357225087417_);" points="211.2,87.4 201.3,87.4 
		187.8,64.1 192.8,55.5 177.2,28.4 146,28.4 126.6,62 122.7,69.1 122.6,69 119.8,64.1 124.4,56.1 124.7,55.5 124.3,54.8 109.1,28.4 
		77.9,28.4 62.4,55.5 73.7,75.3 89.3,48.2 97.8,48.2 102,55.5 97.8,62.8 87.8,62.8 77.2,81.3 73.8,87.2 73.7,87.4 63,105.9 
		67.9,114.6 63.7,121.9 55.3,121.9 51.1,114.6 66.7,87.4 44,87.4 28.4,114.6 43.9,141.7 75.1,141.7 90.7,114.5 85.8,106 88.6,101.1 
		96.5,87.4 99.2,82.7 107.7,82.7 121.9,107.3 123.3,107.3 132.1,92.1 134.8,87.4 138.1,81.6 157.4,48.2 165.8,48.2 170,55.5 
		164.3,65.4 174.9,82.7 177.8,87.4 189.9,107.3 199.8,107.3 204,114.6 199.8,121.9 191.4,121.9 170.7,87.4 155.9,62.8 145.4,81.5 
		145.4,81.6 145.3,81.6 142,87.4 131.3,106.4 135.9,114.6 131.8,121.9 123.3,121.9 119.1,114.6 107.7,94.8 104.4,88.9 104.1,88.5 
		104.1,88.5 103.5,87.4 103.2,87.4 102.6,88.5 92.5,106 92,107 92.6,108.1 93,108.7 96.4,114.6 96.9,115.5 96.9,115.6 112,141.7 
		143.1,141.7 158.2,115.6 158.7,114.6 153.8,106 156.6,101.1 164.9,115.6 180,141.7 211.2,141.7 226.8,114.6 211.2,87.4 	"/>
</g>
<g id="Frame">
	<rect class="st1" width="566.9" height="170.1"/>
</g>
</svg>
