<?xml version="1.0" encoding="UTF-8"?><svg id="Ebene_2" xmlns="http://www.w3.org/2000/svg" xmlns:xlink="http://www.w3.org/1999/xlink" viewBox="0 0 566.93 170.08"><defs><style>.cls-1{fill:#fff;}.cls-2{fill:none;}.cls-3{fill:url(#Unbenannter_Verlauf_11);}</style><linearGradient id="Unbenannter_Verlauf_11" x1="61.55" y1="114.53" x2="210.56" y2="28.5" gradientTransform="translate(0 171.28) scale(1 -1)" gradientUnits="userSpaceOnUse"><stop offset="0" stop-color="#ffd500"/><stop offset="1" stop-color="#f9b000"/></linearGradient></defs><g id="Logo"><g id="Schrift"><g id="MOST"><path class="cls-1" d="M290.46,58.88l.12,36.41-6.97,.02-.14-44.16,6.84-.02c2.65,0,3.81,1.35,4.91,2.63l21,24.92,20.9-25.06c1.03-1.23,2.25-2.65,4.9-2.67l6.84-.02,.14,44.16-6.97,.02-.12-36.41-22.77,27-5.74,.02-22.94-26.85h0Z"/><path class="cls-1" d="M419.9,72.8c.06,17.63-10.39,22.76-30.6,22.83-20.21,.06-30.68-5.01-30.74-22.63-.06-17.56,10.39-22.69,30.6-22.76,20.21-.06,30.68,5.01,30.74,22.56h0Zm-7.29,.02c-.04-13.75-8.12-15.92-23.42-15.87-15.3,.05-23.36,2.27-23.32,16.02,.04,13.81,8.12,15.92,23.42,15.87,15.3-.05,23.36-2.21,23.32-16.02Z"/><path class="cls-1" d="M466.17,88.35c6.33-.02,8.9-2.16,8.89-5.71-.02-3.74-3.05-5.74-10.35-6.3l-21.63-1.68c-9.88-.74-15.44-4.28-15.47-12.03-.03-8.65,7-11.96,15.85-11.99l35.83-.11,.02,6.39-36.48,.11c-5.1,.02-8,1.64-7.99,5.39,0,3.42,2.34,5.22,10.02,5.78l20.86,1.61c10.4,.81,16.67,4.08,16.69,12.54,.02,7.36-4.87,12.35-16.69,12.38l-38.55,.12-.02-6.39,39-.13v.02h.02Z"/><path class="cls-1" d="M508.81,94.61l-.12-37.71-22.79,.07-.02-6.46,52.69-.17,.02,6.46-22.79,.07,.12,37.71-7.1,.02h-.01Z"/></g><g id="Robotics"><path class="cls-1" d="M285.66,119.83h-1.12c-.23,0-.35-.11-.35-.34l-.05-15.25c0-.23,.12-.35,.35-.35l5.7-.02c1.14,0,2.04,.32,2.71,.97,.66,.65,1,1.55,1,2.69v2.25c0,.93-.21,1.69-.66,2.29s-1.06,1-1.86,1.21v.09l2.9,6.02c.15,.26,.06,.4-.25,.4h-1.12c-.28,0-.49-.11-.63-.34l-2.79-6h-3.28c-.17,0-.25,.09-.25,.24l.02,5.78c0,.23-.11,.35-.35,.35h.03Zm.57-7.86l3.74-.02c1.42,0,2.13-.72,2.13-2.14v-2.21c0-1.44-.73-2.16-2.14-2.15l-3.74,.02c-.17,0-.25,.07-.25,.22l.02,6.05c0,.15,.09,.22,.25,.22h0Z"/><path class="cls-1" d="M323.74,119.71h-2.95c-1.14,.02-2.04-.31-2.7-.95s-.98-1.54-.99-2.7l-.02-8.61c0-1.16,.32-2.06,.97-2.71s1.55-.97,2.69-.97h2.95c1.14-.02,2.04,.31,2.7,.97,.66,.65,.98,1.55,.99,2.69l.02,8.61c0,1.14-.32,2.04-.97,2.7s-1.55,.98-2.69,.99v-.02Zm-2.76-1.58h2.53c1.39-.02,2.08-.74,2.08-2.18l-.02-8.46c0-1.44-.7-2.15-2.09-2.15h-2.53c-1.37,.02-2.06,.74-2.05,2.18l.02,8.46c0,1.44,.7,2.16,2.06,2.15h0Z"/><path class="cls-1" d="M350.92,119.28l-.05-15.25c0-.23,.12-.35,.35-.35l5.83-.02c1.14,0,2.03,.31,2.68,.95,.65,.63,.97,1.52,.97,2.67v1.36c0,1.47-.68,2.43-2.07,2.86,.63,.05,1.16,.32,1.61,.82,.45,.51,.67,1.17,.67,1.99v1.66c0,1.14-.32,2.03-.97,2.67s-1.55,.96-2.69,.97l-6.01,.02c-.23,0-.35-.11-.35-.35h.03Zm2.03-8.53h3.82c1.46-.02,2.18-.72,2.18-2.13v-1.31c0-1.41-.71-2.1-2.12-2.1h-3.89c-.17,.02-.25,.09-.25,.26l.02,5.06c0,.15,.09,.22,.25,.22h0Zm.02,7.34l4.07-.02c1.42,0,2.13-.71,2.13-2.11v-1.61c0-1.41-.78-2.1-2.29-2.1h-3.92c-.17,.02-.25,.09-.25,.24l.02,5.36c0,.17,.09,.25,.25,.25h0Z"/><path class="cls-1" d="M390.76,119.5h-2.95c-1.14,.02-2.04-.31-2.7-.95s-.98-1.54-.99-2.7l-.02-8.61c0-1.16,.32-2.06,.97-2.71s1.55-.97,2.69-.97h2.95c1.14-.02,2.04,.31,2.7,.97,.66,.65,.98,1.55,.99,2.69l.02,8.61c0,1.14-.32,2.04-.97,2.69-.65,.66-1.55,.99-2.69,.99h0Zm-2.76-1.6h2.53c1.39-.02,2.08-.74,2.08-2.18l-.02-8.46c0-1.44-.7-2.15-2.09-2.15h-2.53c-1.37,.02-2.06,.74-2.05,2.18l.02,8.46c0,1.44,.7,2.15,2.06,2.15h0Z"/><path class="cls-1" d="M421.84,119.4h-1.12c-.23,0-.35-.11-.35-.34l-.04-13.79c0-.15-.09-.22-.25-.22h-3.37c-.25,0-.37-.1-.37-.33v-.89c0-.23,.12-.35,.36-.35l9.05-.03c.25,0,.37,.11,.37,.35v.89c0,.23-.12,.35-.37,.35h-3.37c-.17,0-.25,.09-.25,.24l.04,13.79c0,.23-.11,.35-.35,.35h0l.02-.02Z"/><path class="cls-1" d="M450.27,103.71l.05,15.25c0,.23-.11,.35-.35,.35h-1.12c-.23,0-.35-.11-.35-.34l-.05-15.25c0-.23,.11-.35,.35-.35h1.12c.23,0,.35,.11,.35,.34Z"/><path class="cls-1" d="M480.6,119.21h-2.97c-1.14,.02-2.04-.31-2.7-.95s-.98-1.54-.99-2.7l-.02-8.61c0-1.16,.32-2.06,.97-2.71s1.55-.97,2.69-.97h2.97c1.14-.02,2.04,.31,2.7,.95s.98,1.54,.99,2.7v1.22c0,.23-.11,.35-.34,.35h-1.12c-.23,0-.35-.11-.35-.34v-1.14c0-1.44-.7-2.16-2.1-2.15h-2.56c-1.37,.02-2.06,.74-2.05,2.18l.02,8.46c0,1.44,.7,2.15,2.06,2.15h2.56c1.39-.02,2.08-.74,2.08-2.18v-1.14c0-.23,.11-.35,.34-.35h1.12c.23,0,.35,.11,.35,.34v1.22c0,1.16-.32,2.06-.97,2.71s-1.55,.97-2.69,.97h.01Z"/><path class="cls-1" d="M507.28,115.46v-.79c0-.23,.11-.35,.34-.35h1.12c.23,0,.35,.11,.35,.34v.65c0,1.49,.74,2.23,2.22,2.22h2.18c1.47,0,2.21-.78,2.2-2.29v-.85c0-1.19-.99-1.96-2.96-2.33-.82-.14-1.65-.32-2.48-.51s-1.53-.58-2.11-1.15-.87-1.35-.88-2.34v-1.22c0-1.14,.32-2.04,.97-2.7,.65-.66,1.55-.98,2.69-.99h2.75c1.12,0,2.02,.31,2.68,.97,.66,.65,1,1.55,1,2.69v.62c0,.25-.1,.37-.32,.37h-1.14c-.21,0-.32-.12-.32-.37v-.44c0-1.5-.74-2.25-2.22-2.25h-2.11c-1.47,0-2.21,.8-2.2,2.37v.99c0,.85,.56,1.42,1.67,1.73,.5,.13,1.04,.25,1.64,.36s1.19,.25,1.8,.41c.6,.17,1.16,.39,1.65,.64s.9,.64,1.21,1.16,.46,1.16,.47,1.9v1.12c0,1.14-.32,2.04-.98,2.7s-1.55,.98-2.67,.99h-2.86c-1.12,.02-2.02-.31-2.68-.97-.66-.65-1-1.55-1-2.69h-.01Z"/></g></g><polygon id="M" class="cls-3" points="211.16 87.43 201.27 87.43 187.8 64.11 192.75 55.5 177.17 28.35 145.97 28.35 126.62 62.02 122.67 69.13 122.59 68.99 119.78 64.11 124.4 56.08 124.73 55.5 124.35 54.83 109.12 28.35 77.95 28.35 62.37 55.5 73.74 75.27 89.33 48.17 97.75 48.17 101.96 55.5 97.75 62.83 87.85 62.83 77.21 81.29 73.82 87.16 73.66 87.43 62.99 105.94 67.93 114.58 63.73 121.91 55.33 121.91 51.12 114.58 66.74 87.43 43.97 87.43 28.35 114.58 43.94 141.73 75.13 141.73 90.71 114.5 85.79 105.98 88.59 101.1 96.47 87.43 99.23 82.65 107.67 82.65 121.87 107.26 123.33 107.26 132.08 92.05 134.75 87.43 138.14 81.55 157.35 48.17 165.77 48.17 169.98 55.5 164.3 65.39 174.85 82.65 177.77 87.43 189.89 107.26 199.79 107.26 204 114.58 199.79 121.91 191.37 121.91 170.67 87.43 155.89 62.83 145.35 81.5 145.37 81.55 145.31 81.55 142 87.43 131.28 106.39 135.95 114.58 131.77 121.91 123.35 121.91 119.14 114.58 107.74 94.79 104.37 88.92 104.14 88.53 104.1 88.47 103.48 87.43 103.2 87.43 102.58 88.53 92.53 105.98 91.96 106.96 92.62 108.1 92.98 108.71 96.37 114.58 96.91 115.54 96.91 115.56 111.97 141.73 143.15 141.73 158.17 115.56 158.74 114.58 153.81 105.98 156.61 101.1 164.93 115.56 179.99 141.73 211.16 141.73 226.77 114.58 211.16 87.43 211.16 87.43"/></g><g id="Frame"><rect class="cls-2" width="566.93" height="170.08"/></g></svg>