<?xml version="1.0" encoding="UTF-8"?>
<svg id="Ebene_2" data-name="Ebene 2" xmlns="http://www.w3.org/2000/svg" viewBox="0 0 512 512">
  <defs>
    <style>
      .cls-1 {
        fill: #ececec;
        stroke: #000;
        stroke-linecap: round;
        stroke-linejoin: round;
        stroke-width: 10px;
      }

      .cls-2 {
        fill: none;
        stroke-width: 0px;
      }
    </style>
  </defs>
  <g id="navigation">
    <g id="camera_animation" data-name="camera animation">
      <g id="v2">
        <g>
          <path class="cls-1" d="M316.96,385.12c26.38,0,52.77.14,79.15-.04,30.09-.2,53.69-20.15,59.07-49.76.69-3.78.76-7.72.76-11.58.05-45.16.08-90.33.02-135.49-.05-35.86-25.78-61.4-61.75-61.41-51.84,0-103.67-.02-155.51,0-30.74.02-54.82,20.15-60.11,50.3-.59,3.34-.66,6.8-.66,10.2-.04,45.78-.12,91.57,0,137.35.09,30.67,20.11,54.41,50.14,59.69,3.94.69,8.03.69,12.06.7,25.61.06,51.22.03,76.82.03Z"/>
          <path class="cls-1" d="M155.79,169.4c-20.39-5.98-41.49-12.16-62.59-18.36-3.72-1.09-7.41-2.24-11.14-3.3-13.61-3.87-25.94,4.9-25.97,19-.13,59.58-.14,119.16.02,178.74.04,13.81,12.53,22.75,25.69,18.9,24.08-7.05,48.14-14.16,72.2-21.26.87-.26,1.73-.56,1.92-.63-1.16-57.71-.96-115.01-.13-173.1Z"/>
        </g>
      </g>
    </g>
  </g>
  <g id="frame">
    <rect class="cls-2" width="512" height="512"/>
  </g>
</svg>