<?xml version="1.0" encoding="UTF-8"?>
<svg id="Ebene_2" data-name="Ebene 2" xmlns="http://www.w3.org/2000/svg" viewBox="0 0 512 512">
  <defs>
    <style>
      .cls-1 {
        fill: none;
        stroke-width: 0px;
      }

      .cls-2 {
        fill: #ececec;
        stroke: #000;
        stroke-miterlimit: 10;
        stroke-width: 10px;
      }
    </style>
  </defs>
  <g id="navigation">
    <g id="compas">
      <g>
        <path class="cls-2" d="M256.18,56c110.36.09,199.96,89.89,199.82,200.27-.13,110.33-90.05,199.95-200.38,199.73-110.36-.23-199.81-90.07-199.62-200.5.19-110.1,89.98-199.59,200.17-199.5ZM162.22,360.76c1.05-.34,2.94-.8,4.72-1.53,39.6-16.32,79.17-32.71,118.8-48.97,11.69-4.8,19.75-12.89,24.53-24.59,12.11-29.64,24.4-59.21,36.61-88.82,4.28-10.38,8.65-20.73,12.81-31.16,2.75-6.91-.92-13.74-7.82-14.27-2.47-.19-5.19.74-7.57,1.71-39.36,16.16-78.67,32.47-118.03,48.62-11.69,4.79-19.75,12.86-24.54,24.57-15.44,37.71-31.06,75.36-46.59,113.04-1.27,3.07-2.7,6.12-3.54,9.31-1.61,6.1,3.46,12.21,10.62,12.08Z"/>
        <path class="cls-2" d="M256.06,282.65c-14.72.03-26.73-11.98-26.71-26.7.02-14.72,12.06-26.67,26.8-26.61,14.55.07,26.43,11.94,26.5,26.49.07,14.74-11.88,26.79-26.6,26.82Z"/>
      </g>
    </g>
  </g>
  <g id="frame">
    <rect class="cls-1" width="512" height="512"/>
  </g>
</svg>