<?xml version="1.0" encoding="UTF-8"?>
<svg id="Ebene_2" data-name="Ebene 2" xmlns="http://www.w3.org/2000/svg" viewBox="0 0 512 512">
  <defs>
    <style>
      .cls-1 {
        fill: none;
        stroke-width: 0px;
      }

      .cls-2 {
        fill: #ececec;
        stroke: #000;
        stroke-miterlimit: 10;
        stroke-width: 10px;
      }
    </style>
  </defs>
  <g id="navigation">
    <g id="earth_control" data-name="earth control">
      <path class="cls-2" d="M229.64,187.47c0-12.52-.07-25.04.05-37.55.03-3.52-.94-4.21-4.37-3.09-17.42,5.69-32.93-3.95-35.34-22.08-.96-7.2,1.12-14.01,6.22-19.23,14.09-14.42,28.21-28.84,42.8-42.75,9.51-9.07,24.67-9,34.2.11,14.48,13.83,28.61,28.04,42.48,42.48,8.1,8.43,8.69,21.58,2.4,31.31-6.32,9.79-18.21,14.13-29.56,10.81q-6.1-1.79-6.11,4.72c0,23.92,0,47.85,0,71.77,0,5.64.04,5.68,5.46,5.69,24.48.02,48.96.02,73.44,0,5.15,0,5.15-.05,3.55-5.11-3.79-11.95.46-24.12,10.69-30.64,10.21-6.51,23.26-5.36,32.26,3.41,13.64,13.3,27.16,26.74,40.41,40.42,10.39,10.72,10.29,26.08-.11,36.76-13.2,13.54-26.59,26.91-40.13,40.12-8.01,7.82-17.69,9.79-28.11,5.68-10.5-4.14-15.71-12.51-16.5-23.53-.21-2.95.67-6.06,1.47-8.98,1.47-5.36,1.61-5.34-4.15-5.35-12.1-.01-24.2,0-36.3,0-12.24,0-24.48.12-36.72-.07-3.88-.06-5.37,1-5.34,5.13.16,24.76.07,49.51.09,74.27,0,4.75.08,4.75,4.69,3.27,17.42-5.58,33.89,5.29,35.12,23.54.46,6.86-1.71,13.34-6.63,18.34-13.95,14.17-27.86,28.4-42.22,42.16-9.89,9.47-25.26,9.21-35.17-.39-13.99-13.54-27.73-27.34-41.3-41.3-8.4-8.65-9.42-21.57-3.16-31.59,6.34-10.16,18.49-14.61,30.16-11.05.93.28,1.86.58,2.77.92,1.93.73,2.93.15,2.93-1.97,0-.56.04-1.11.04-1.67,0-25.04-.05-50.07.05-75.11.01-3.5-1.3-4.53-4.65-4.51-25.04.09-50.07.09-75.11,0-3.53-.01-4.31.98-3.07,4.37,3.5,9.51,2.06,18.41-4.45,26.19-9.48,11.34-26.51,12.8-37.2,2.62-14.4-13.71-28.42-27.83-42.2-42.17-9.36-9.74-9.3-25.03.12-34.84,13.68-14.24,27.68-28.18,41.88-41.9,8.49-8.2,21.44-9.04,31.29-2.89,10.03,6.26,14.53,18.24,11.18,29.76-.31,1.07-.65,2.13-1.04,3.17-.71,1.93-.14,2.94,1.98,2.93.42,0,.83.03,1.25.03,25.17,0,50.35-.05,75.52.06,3.53.01,4.52-1.36,4.49-4.68-.13-12.52-.05-25.03-.05-37.55Z"/>
    </g>
  </g>
  <g id="frame">
    <rect class="cls-1" width="512" height="512"/>
  </g>
</svg>