<?xml version="1.0" encoding="UTF-8"?>
<svg id="uuid-21505c19-3df8-4e94-8fb5-d66b6fbb454f" data-name="Ebene 2" xmlns="http://www.w3.org/2000/svg" width="96" height="48" viewBox="0 0 96 48">
  <g id="uuid-1372e845-804c-4443-883c-9dbb51bc0361" data-name="Ebene 1">
    <rect width="96" height="48" rx="12" ry="12" fill="#484848" stroke-width="0"/>
    <g>
      <path d="M14.21,35.45V12.55h10.83c2.53,0,4.75.47,6.67,1.41,1.92.94,3.42,2.26,4.5,3.96s1.62,3.73,1.62,6.08-.54,4.36-1.62,6.07c-1.08,1.71-2.58,3.04-4.5,3.97-1.92.94-4.14,1.41-6.67,1.41h-10.83ZM20.69,30.28h4.09c1.31,0,2.45-.24,3.42-.74.97-.49,1.73-1.21,2.27-2.16.54-.95.82-2.08.82-3.39s-.27-2.46-.82-3.4c-.55-.94-1.3-1.65-2.27-2.14-.97-.49-2.11-.74-3.42-.74h-4.09v12.56Z" fill="#fff" stroke-width="0"/>
      <path d="M38.06,35.45l10.01-13.9-.03,4.61-9.62-13.61h7.3l6.15,8.86-3.11.03,6.05-8.9h7l-9.62,13.35v-4.58l10.14,14.13h-7.46l-6.25-9.32h2.98l-6.15,9.32h-7.39Z" fill="#fff" stroke-width="0"/>
      <path d="M70.31,35.45h-6.48V12.55h17.96v5h-11.48v17.89ZM69.85,22.59h10.57v5h-10.57v-5Z" fill="#fff" stroke-width="0"/>
    </g>
  </g>
</svg>