<?xml version="1.0" encoding="UTF-8"?>
<svg id="Ebene_2" data-name="Ebene 2" xmlns="http://www.w3.org/2000/svg" xmlns:xlink="http://www.w3.org/1999/xlink" viewBox="0 0 512 512">
  <defs>
    <style>
      .cls-1 {
        fill: none;
        stroke-width: 0px;
      }

      .cls-2 {
        fill: url(#MOST_Gradient-2);
      }

      .cls-2, .cls-3, .cls-4 {
        stroke: #000;
        stroke-miterlimit: 10;
        stroke-width: 12px;
      }

      .cls-3 {
        fill: #ececec;
      }

      .cls-4 {
        fill: url(#MOST_Gradient);
      }
    </style>
    <radialGradient id="MOST_Gradient" data-name="MOST Gradient" cx="256" cy="407.06" fx="201.45" fy="396.47" r="60" gradientUnits="userSpaceOnUse">
      <stop offset="0" stop-color="#faca30"/>
      <stop offset=".27" stop-color="#f9c62a"/>
      <stop offset=".61" stop-color="#f9bb1b"/>
      <stop offset=".98" stop-color="#f9a901"/>
      <stop offset="1" stop-color="#f9a800"/>
    </radialGradient>
    <radialGradient id="MOST_Gradient-2" data-name="MOST Gradient" cy="108" fy="97.41" xlink:href="#MOST_Gradient"/>
  </defs>
  <g id="measurements">
    <g id="height">
      <path class="cls-3" d="M256,453c-13.26,0-24-8.95-24-20v-8c0-11.05,10.74-20,24-20s24,8.95,24,20v8c0,11.05-10.74,20-24,20ZM256,397c-13.26,0-24-8.95-24-20v-48c0-11.05,10.74-20,24-20s24,8.95,24,20v48c0,11.05-10.74,20-24,20ZM256,301c-13.26,0-24-8.95-24-20v-48c0-11.05,10.74-20,24-20s24,8.95,24,20v48c0,11.05-10.74,20-24,20ZM256,205c-13.26,0-24-8.95-24-20v-48c0-11.05,10.74-20,24-20s24,8.95,24,20v48c0,11.05-10.74,20-24,20Z"/>
      <circle class="cls-4" cx="256" cy="407.06" r="60"/>
      <circle class="cls-2" cx="256" cy="108" r="60"/>
    </g>
  </g>
  <g id="frame">
    <rect class="cls-1" width="512" height="512"/>
  </g>
</svg>