<?xml version="1.0" encoding="UTF-8"?>
<svg id="Ebene_2" data-name="Ebene 2" xmlns="http://www.w3.org/2000/svg" viewBox="0 0 512 512">
  <defs>
    <style>
      .cls-1 {
        fill: none;
        stroke-width: 0px;
      }

      .cls-2 {
        fill: #ececec;
        stroke: #000;
        stroke-miterlimit: 10;
        stroke-width: 10px;
      }
    </style>
  </defs>
  <g id="navigation">
    <g id="navigation_cube" data-name="navigation cube">
      <g>
        <path class="cls-2" d="M270.18,455.94v-4.79c0-59.78.04-119.56-.09-179.34,0-3.61,1.21-5.41,4.23-7.13,53.82-30.63,107.57-61.38,161.34-92.1,1.26-.72,2.55-1.38,4.31-2.32.1,1.62.24,2.85.24,4.09.01,55.5,0,111,.01,166.5,0,13.58-5.72,23.95-17.58,30.57-49.83,27.78-99.72,55.45-149.59,83.16-.74.41-1.54.74-2.87,1.37Z"/>
        <path class="cls-2" d="M423.22,146.78c-1.38.88-2.43,1.62-3.55,2.25-53.37,30.52-106.75,61.01-160.08,91.6-2.76,1.59-4.76,1.61-7.58.09-54.71-29.58-109.49-59.04-164.25-88.54-1.24-.67-2.43-1.45-4.08-2.44,1.63-1.01,2.81-1.81,4.05-2.5,53.21-29.57,106.45-59.1,159.63-88.74,5.85-3.26,11.24-3.39,17.11-.12,51.89,28.92,103.84,57.74,155.76,86.59.88.49,1.72,1.04,2.98,1.8Z"/>
        <path class="cls-2" d="M71.8,175.83c7.95,4.24,15.31,8.15,22.65,12.1,47.61,25.64,95.19,51.33,142.87,76.85,3.5,1.87,4.62,3.89,4.61,7.8-.14,59.31-.1,118.61-.1,177.92v5.5c-1.89-.99-3.28-1.69-4.65-2.45-48.82-27.12-97.6-54.29-146.46-81.34-12.68-7.02-18.98-17.46-18.96-31.99.08-53.11.03-106.22.03-159.33,0-1.43,0-2.87,0-5.07Z"/>
      </g>
    </g>
  </g>
  <g id="frame">
    <rect class="cls-1" width="512" height="512"/>
  </g>
</svg>