<?xml version="1.0" encoding="UTF-8"?>
<svg id="Ebene_2" data-name="Ebene 2" xmlns="http://www.w3.org/2000/svg" viewBox="0 0 512 512">
  <defs>
    <style>
      .cls-1 {
        fill: #ececec;
      }

      .cls-1, .cls-2, .cls-3 {
        stroke-width: 0px;
      }

      .cls-3 {
        fill: none;
      }
    </style>
  </defs>
  <g id="navigation">
    <g id="orbit_controls" data-name="orbit controls">
      <g>
        <g>
          <path class="cls-1" d="M257.88,461c-101.11,0-186.82-71.86-203.8-170.87-15.07-87.86,29.64-176.68,108.74-215.99,30.89-15.35,62.28-23.14,93.31-23.14,34.43,0,69.13,9.58,103.15,28.47.46.25.66.3.69.3,0,0,.22-.04.74-.3,7.81-3.82,16.04-5.76,24.47-5.76,14.18,0,27.57,5.58,37.69,15.73,16.31,16.34,20.29,41.34,9.91,62.2-.2.39-.27.62-.3.72.03.09.1.26.27.54,31.78,54.47,36.84,119.35,13.89,178-22.94,58.61-70.64,102.79-130.89,121.2-18.48,5.65-38.47,8.73-57.81,8.91h-.05ZM256.07,88.05c-50.41,0-97.73,22.42-129.82,61.52-55.02,67.04-49.89,166.36,11.67,226.12,32.41,31.46,74.41,48.79,118.26,48.79,40.44,0,79.89-15.07,111.09-42.45,66.28-58.15,68.58-147.58,37.22-204.3-7.16,2.55-14.13,3.84-20.79,3.84-14,0-26.59-5.59-37.4-16.63-15.42-15.74-19.44-35.46-11.75-57.24-23.47-12.88-50.51-19.66-78.49-19.66Z"/>
          <path class="cls-2" d="M256.12,56c33.83,0,67.44,9.36,100.72,27.84,1.14.63,2.12.93,3.1.93s1.89-.28,2.96-.81c7.21-3.53,14.81-5.25,22.27-5.25,12.59,0,24.81,4.9,34.15,14.26,14.85,14.88,18.48,37.33,8.97,56.44-1.11,2.23-1.16,3.79.13,6,65.03,111.48,9.19,254.2-114.14,291.89-18.96,5.8-38.37,8.52-56.4,8.69-99.11,0-182.35-70.41-198.88-166.72-14.61-85.15,28.65-172.21,106.04-210.67,30.45-15.13,60.85-22.61,91.08-22.61M256.18,429.49c40.5,0,81.07-14.46,114.38-43.69,67.39-59.12,72.82-152.47,36.12-214.27-7.91,3.32-15.6,5.05-22.99,5.05-12.29,0-23.71-4.81-33.83-15.13-15.83-16.15-17.65-35.45-9.11-55.97-25.04-14.66-54.56-22.44-84.7-22.44-48.21,0-98.02,19.89-133.69,63.35-57.11,69.59-51.57,171.13,12.06,232.88,34.34,33.33,78,50.2,121.74,50.2M256.12,46c-31.8,0-63.95,7.96-95.53,23.66-81.06,40.29-126.88,131.29-111.44,221.31,17.4,101.42,105.18,175.03,208.72,175.03h.11c19.82-.19,40.29-3.35,59.22-9.13,61.71-18.86,110.58-64.11,134.08-124.16,23.27-59.45,18.44-125.14-13.21-180.58,4.95-10.78,6.59-22.53,4.74-34.11-1.95-12.21-7.63-23.31-16.42-32.12-11.07-11.09-25.71-17.19-41.23-17.19-8.62,0-17.05,1.85-25.06,5.51-34.28-18.73-69.24-28.22-103.99-28.22h0ZM256.18,419.49c-42.54,0-83.3-16.83-114.78-47.38-59.71-57.96-64.67-154.32-11.29-219.36,31.14-37.94,77.04-59.7,125.96-59.7,25.69,0,50.56,5.89,72.43,17.11-6.5,22.06-1.65,42.08,14.23,58.29,11.79,12.03,25.57,18.13,40.97,18.13,5.93,0,12.08-.94,18.35-2.79,28.34,55.1,24.83,139.29-38.08,194.49-30.28,26.57-68.56,41.2-107.79,41.2h0Z"/>
        </g>
        <g>
          <path class="cls-1" d="M256.02,363.21c-28.56-.02-55.4-11.11-75.59-31.23-20.19-20.12-31.38-46.93-31.51-75.5-.13-28.47,10.94-55.36,31.17-75.71,20.29-20.41,47.21-31.66,75.81-31.69h.13c59,0,107.09,48.02,107.19,107.04.05,28.52-11.05,55.37-31.25,75.61-20.27,20.3-47.21,31.48-75.88,31.48h-.07Z"/>
          <path class="cls-2" d="M256.03,154.08c56.32,0,102.09,45.69,102.19,102.05.1,56.29-45.72,102.08-102.13,102.08-.02,0-.04,0-.06,0-56.29-.03-101.84-45.43-102.1-101.75-.26-56.18,45.7-102.32,101.98-102.38.04,0,.08,0,.12,0M256.03,144.08v10-10s-.14,0-.14,0c-29.94.03-58.12,11.81-79.35,33.17-21.18,21.3-32.76,49.45-32.62,79.26.14,29.9,11.85,57.96,32.98,79.02,21.13,21.06,49.23,32.66,79.11,32.68h.07c30,0,58.21-11.7,79.42-32.95,21.15-21.18,32.76-49.29,32.71-79.15-.11-61.78-50.44-112.03-112.18-112.03h0Z"/>
        </g>
      </g>
    </g>
  </g>
  <g id="frame">
    <rect class="cls-3" width="512" height="512"/>
  </g>
</svg>