<?xml version="1.0" encoding="UTF-8"?>
<svg id="Ebene_2" data-name="Ebene 2" xmlns="http://www.w3.org/2000/svg" xmlns:xlink="http://www.w3.org/1999/xlink" viewBox="0 0 512 512">
  <defs>
    <style>
      .cls-1 {
        fill: none;
        stroke-width: 0px;
      }

      .cls-2 {
        fill: url(#Unbenannter_Verlauf_19);
        stroke: #000;
        stroke-miterlimit: 10;
        stroke-width: 10px;
      }
    </style>
    <linearGradient id="Unbenannter_Verlauf_19" data-name="Unbenannter Verlauf 19" x1="258.02" y1="430.28" x2="258.02" y2="87.38" gradientUnits="userSpaceOnUse">
      <stop offset=".04" stop-color="#1a00ff"/>
      <stop offset=".05" stop-color="#1907f7"/>
      <stop offset=".17" stop-color="#0e669d"/>
      <stop offset=".26" stop-color="#06ad5a"/>
      <stop offset=".33" stop-color="#01d831"/>
      <stop offset=".36" stop-color="#00e922"/>
      <stop offset=".4" stop-color="#29eb1f"/>
      <stop offset=".45" stop-color="#74f01c"/>
      <stop offset=".51" stop-color="#b0f419"/>
      <stop offset=".55" stop-color="#daf616"/>
      <stop offset=".59" stop-color="#f5f815"/>
      <stop offset=".61" stop-color="#fff915"/>
      <stop offset=".94" stop-color="#cf0900"/>
    </linearGradient>
  </defs>
  <g id="measurements">
    <g id="profile">
      <path class="cls-2" d="M80.73,430.28c-3.43,0-6.91-.74-10.22-2.3-11.99-5.65-17.13-19.95-11.47-31.94l94.98-201.45c3.34-7.08,9.92-12.09,17.64-13.42,7.71-1.33,15.6,1.19,21.11,6.75l63.03,63.57,76.2-150.94c4.03-7.98,12.16-13.06,21.09-13.18,8.89-.13,17.2,4.73,21.45,12.6l81.87,151.66c6.3,11.66,1.95,26.22-9.72,32.52-11.66,6.3-26.22,1.95-32.52-9.72l-60.04-111.22-70.5,139.65c-3.48,6.89-10.06,11.68-17.68,12.89-7.62,1.2-15.36-1.33-20.79-6.81l-62.35-62.89-80.36,170.44c-4.09,8.68-12.72,13.77-21.72,13.77Z"/>
    </g>
  </g>
  <g id="frame">
    <rect class="cls-1" width="512" height="512"/>
  </g>
</svg>