<?xml version="1.0" encoding="UTF-8"?>
<svg id="uuid-af35d21d-3481-4c08-83eb-28da0cddaa86" data-name="Ebene 2" xmlns="http://www.w3.org/2000/svg" width="512" height="512" xmlns:xlink="http://www.w3.org/1999/xlink" viewBox="0 0 512 512">
  <defs>
    <linearGradient id="uuid-dee7bc02-3df1-47d9-a680-d41c7ee72fe4" data-name="Unbenannter Verlauf 47" x1="258.01" y1="434.28" x2="258.01" y2="83.38" gradientUnits="userSpaceOnUse">
      <stop offset=".04" stop-color="#1a00ff"/>
      <stop offset=".05" stop-color="#1907f7"/>
      <stop offset=".17" stop-color="#0e669d"/>
      <stop offset=".26" stop-color="#06ad5a"/>
      <stop offset=".33" stop-color="#01d831"/>
      <stop offset=".36" stop-color="#00e922"/>
      <stop offset=".4" stop-color="#29eb1f"/>
      <stop offset=".45" stop-color="#74f01c"/>
      <stop offset=".51" stop-color="#b0f419"/>
      <stop offset=".55" stop-color="#daf616"/>
      <stop offset=".59" stop-color="#f5f815"/>
      <stop offset=".61" stop-color="#fff915"/>
      <stop offset=".94" stop-color="#e30613"/>
    </linearGradient>
  </defs>
  <g id="uuid-039d1131-1b30-4d2f-833f-c9d4a8a34dfe" data-name="measurements">
    <g id="uuid-056c6117-a464-480d-8af6-668d14969463" data-name="profile">
      <path d="M80.73,434.28c-4.14,0-8.15-.9-11.92-2.68-6.76-3.19-11.88-8.82-14.41-15.86-2.53-7.04-2.16-14.64,1.03-21.41l94.98-201.45c3.89-8.26,11.59-14.11,20.58-15.65,1.56-.27,3.16-.41,4.75-.41,7.41,0,14.66,3.02,19.88,8.29l59.12,59.63,73.7-145.98c4.72-9.34,14.15-15.23,24.61-15.38h.4c10.29,0,19.73,5.63,24.62,14.7l81.87,151.66c7.33,13.59,2.25,30.6-11.34,37.94-4.08,2.2-8.67,3.37-13.28,3.37-10.31,0-19.76-5.63-24.66-14.7l-56.4-104.48-67.05,132.81c-4.04,8.01-11.75,13.63-20.62,15.04-1.44.23-2.91.34-4.37.34-7.42,0-14.66-3.02-19.89-8.29l-58.33-58.83-77.93,165.28c-4.6,9.76-14.55,16.06-25.34,16.06Z" fill="url(#uuid-dee7bc02-3df1-47d9-a680-d41c7ee72fe4)" stroke="#000" stroke-miterlimit="10" stroke-width="12"/>
    </g>
  </g>
  <g id="uuid-c8ec2885-94b3-45bf-a09e-4bff3a2062a5" data-name="frame">
    <rect width="512" height="512" fill="none" stroke-width="0"/>
  </g>
</svg>