<?xml version="1.0" encoding="UTF-8"?>
<svg id="uuid-ef9a1fe9-58cf-410d-a9ee-f13c1395ad40" data-name="Ebene 2" xmlns="http://www.w3.org/2000/svg" width="512" height="512" viewBox="0 0 512 512">
  <g id="uuid-2475fbe3-fa94-4eab-a32e-1bd210500b2b" data-name="measurements">
    <g id="uuid-874ef031-0a69-47d9-96e0-db41f0d04b94" data-name="Remove">
      <path d="M364.88,396c-8.32,0-16.13-3.24-22.01-9.12l-86.86-86.86-86.86,86.86c-5.88,5.88-13.7,9.12-22.01,9.12s-16.13-3.24-22.01-9.12-9.12-13.7-9.12-22.01,3.24-16.13,9.12-22.01l86.86-86.86-86.86-86.86c-5.88-5.88-9.12-13.7-9.12-22.01s3.24-16.13,9.12-22.01c5.88-5.88,13.7-9.12,22.01-9.12,0,0,0,0,0,0,8.32,0,16.13,3.24,22.01,9.12l86.86,86.86,86.86-86.86c5.88-5.88,13.7-9.12,22.01-9.12s16.13,3.24,22.01,9.12c12.14,12.14,12.14,31.89,0,44.02l-86.86,86.86,86.86,86.86c12.14,12.14,12.14,31.89,0,44.02-5.88,5.88-13.7,9.12-22.01,9.12Z" fill="#ff0020" stroke="#000" stroke-miterlimit="10" stroke-width="12"/>
    </g>
  </g>
  <g id="uuid-4c9a3fb4-6ade-4da7-be76-37a89722ac28" data-name="frame">
    <rect width="512" height="512" fill="none" stroke-width="0"/>
  </g>
</svg>