<?xml version="1.0" encoding="UTF-8"?>
<svg id="Ebene_2" data-name="Ebene 2" xmlns="http://www.w3.org/2000/svg" viewBox="0 0 2054 512">
  <defs>
    <style>
      .cls-1 {
        fill: #e00018;
        stroke: #000;
        stroke-miterlimit: 10;
        stroke-width: 10px;
      }

      .cls-2 {
        fill: none;
      }

      .cls-2, .cls-3 {
        stroke-width: 0px;
      }

      .cls-3 {
        fill: #fff;
      }
    </style>
  </defs>
  <g id="measurements">
    <path class="cls-1" d="M425.3,86.7c14.26,14.26,14.26,37.39,0,51.65l-117.65,117.65,117.65,117.65c14.26,14.26,14.26,37.39,0,51.65s-37.39,14.26-51.65,0l-117.65-117.65-117.65,117.65c-14.26,14.26-37.39,14.26-51.65,0-14.26-14.26-14.26-37.39,0-51.65l117.65-117.65-117.65-117.65c-14.26-14.26-14.26-37.39,0-51.65,14.26-14.26,37.39-14.26,51.65,0l117.65,117.65,117.65-117.65c14.26-14.26,37.39-14.26,51.65,0Z"/>
    <g>
      <path class="cls-3" d="M818.41,367.04l-48.32-68.8c-4.48.32-9.28.64-14.08.64h-55.36v68.16h-32v-224h87.36c58.24,0,93.44,29.44,93.44,78.08,0,34.56-17.92,59.52-49.28,70.72l53.12,75.2h-34.88ZM817.45,221.12c0-32-21.44-50.24-62.4-50.24h-54.4v100.8h54.4c40.96,0,62.4-18.56,62.4-50.56Z"/>
      <path class="cls-3" d="M1049.45,292.48h-137.6c3.84,29.76,27.84,49.6,61.44,49.6,19.84,0,36.48-6.72,48.96-20.48l16.96,19.84c-15.36,17.92-38.72,27.52-66.88,27.52-54.72,0-91.2-36.16-91.2-86.72s36.16-86.4,85.12-86.4,83.84,35.2,83.84,87.36c0,2.56-.32,6.4-.64,9.28ZM911.84,270.4h108.8c-3.2-28.48-24.64-48.64-54.4-48.64s-51.2,19.84-54.4,48.64Z"/>
      <path class="cls-3" d="M1374.25,269.44v97.6h-30.72v-94.08c0-33.28-16-49.6-43.84-49.6-30.72,0-50.88,19.52-50.88,56.32v87.36h-30.72v-94.08c0-33.28-16-49.6-43.84-49.6-30.72,0-50.88,19.52-50.88,56.32v87.36h-30.72v-169.6h29.44v25.28c12.16-17.28,32.96-26.88,58.56-26.88s47.68,10.24,58.88,31.36c12.8-19.2,36.48-31.36,65.28-31.36,41.28,0,69.44,23.68,69.44,73.6Z"/>
      <path class="cls-3" d="M1416.16,282.24c0-50.56,37.44-86.4,88.32-86.4s88,35.84,88,86.4-37.12,86.72-88,86.72-88.32-36.16-88.32-86.72ZM1561.44,282.24c0-36.16-24.32-59.52-56.96-59.52s-57.28,23.36-57.28,59.52,24.64,59.84,57.28,59.84,56.96-23.68,56.96-59.84Z"/>
      <path class="cls-3" d="M1780.32,197.44l-74.24,169.6h-31.36l-74.24-169.6h32l58.24,136,59.52-136h30.08Z"/>
      <path class="cls-3" d="M1956.96,292.48h-137.6c3.84,29.76,27.84,49.6,61.44,49.6,19.84,0,36.48-6.72,48.96-20.48l16.96,19.84c-15.36,17.92-38.72,27.52-66.88,27.52-54.72,0-91.2-36.16-91.2-86.72s36.16-86.4,85.12-86.4,83.84,35.2,83.84,87.36c0,2.56-.32,6.4-.64,9.28ZM1819.35,270.4h108.8c-3.2-28.48-24.64-48.64-54.4-48.64s-51.2,19.84-54.4,48.64Z"/>
    </g>
  </g>
  <g id="frame">
    <rect class="cls-2" width="2054" height="512"/>
  </g>
</svg>