<?xml version="1.0" encoding="UTF-8"?>
<svg id="Ebene_2" data-name="Ebene 2" xmlns="http://www.w3.org/2000/svg" viewBox="0 0 512 512">
  <defs>
    <style>
      .cls-1 {
        fill: #c80032;
        stroke: #000;
        stroke-miterlimit: 10;
        stroke-width: 10px;
      }

      .cls-2 {
        fill: none;
        stroke-width: 0px;
      }
    </style>
  </defs>
  <g id="frame">
    <rect class="cls-2" width="512" height="512"/>
    <path class="cls-1" d="M425.3,86.7c14.26,14.26,14.26,37.39,0,51.65l-117.65,117.65,117.65,117.65c14.26,14.26,14.26,37.39,0,51.65s-37.39,14.26-51.65,0l-117.65-117.65-117.65,117.65c-14.26,14.26-37.39,14.26-51.65,0-14.26-14.26-14.26-37.39,0-51.65l117.65-117.65-117.65-117.65c-14.26-14.26-14.26-37.39,0-51.65,14.26-14.26,37.39-14.26,51.65,0l117.65,117.65,117.65-117.65c14.26-14.26,37.39-14.26,51.65,0Z"/>
  </g>
</svg>