<?xml version="1.0" encoding="UTF-8"?>
<svg id="Ebene_2" data-name="Ebene 2" xmlns="http://www.w3.org/2000/svg" xmlns:xlink="http://www.w3.org/1999/xlink" viewBox="0 0 512 512">
  <defs>
    <style>
      .cls-1 {
        fill: url(#Unbenannter_Verlauf_6);
      }

      .cls-1, .cls-2, .cls-3, .cls-4, .cls-5, .cls-6, .cls-7, .cls-8 {
        stroke: #000;
        stroke-miterlimit: 10;
      }

      .cls-1, .cls-2, .cls-3, .cls-4, .cls-5, .cls-6, .cls-8 {
        stroke-width: 8px;
      }

      .cls-9, .cls-10, .cls-11 {
        stroke-width: 0px;
      }

      .cls-9, .cls-7 {
        fill: #ececec;
      }

      .cls-10 {
        fill: none;
      }

      .cls-11 {
        fill: #c80032;
      }

      .cls-2 {
        fill: url(#Unbenannter_Verlauf_6-7);
      }

      .cls-3 {
        fill: url(#Unbenannter_Verlauf_6-6);
      }

      .cls-4 {
        fill: url(#Unbenannter_Verlauf_6-2);
      }

      .cls-5 {
        fill: url(#Unbenannter_Verlauf_6-5);
      }

      .cls-6 {
        fill: url(#Unbenannter_Verlauf_6-3);
      }

      .cls-7 {
        stroke-width: 10px;
      }

      .cls-8 {
        fill: url(#Unbenannter_Verlauf_6-4);
      }
    </style>
    <radialGradient id="Unbenannter_Verlauf_6" data-name="Unbenannter Verlauf 6" cx="106.98" cy="408.94" fx="61.52" fy="400.12" r="50" gradientUnits="userSpaceOnUse">
      <stop offset="0" stop-color="#faca30"/>
      <stop offset=".27" stop-color="#f9c62a"/>
      <stop offset=".61" stop-color="#f9bb1b"/>
      <stop offset=".98" stop-color="#f9a901"/>
      <stop offset="1" stop-color="#f9a800"/>
    </radialGradient>
    <radialGradient id="Unbenannter_Verlauf_6-2" data-name="Unbenannter Verlauf 6" cy="209" fy="200.17" xlink:href="#Unbenannter_Verlauf_6"/>
    <radialGradient id="Unbenannter_Verlauf_6-3" data-name="Unbenannter Verlauf 6" cx="307" cy="209" fx="261.54" fy="200.17" xlink:href="#Unbenannter_Verlauf_6"/>
    <radialGradient id="Unbenannter_Verlauf_6-4" data-name="Unbenannter Verlauf 6" cx="407" cy="106" fx="361.54" fy="97.17" xlink:href="#Unbenannter_Verlauf_6"/>
    <radialGradient id="Unbenannter_Verlauf_6-5" data-name="Unbenannter Verlauf 6" cx="407" cy="309" fx="361.54" fy="300.17" xlink:href="#Unbenannter_Verlauf_6"/>
    <radialGradient id="Unbenannter_Verlauf_6-6" data-name="Unbenannter Verlauf 6" cx="207" cy="106" fx="161.54" fy="97.17" xlink:href="#Unbenannter_Verlauf_6"/>
    <radialGradient id="Unbenannter_Verlauf_6-7" data-name="Unbenannter Verlauf 6" cx="307" fx="261.54" xlink:href="#Unbenannter_Verlauf_6"/>
  </defs>
  <g id="measurements">
    <g id="volume">
      <rect class="cls-11" x="122.98" y="225" width="168.02" height="167.94"/>
      <g>
        <polygon class="cls-11" points="369.17 122 300.23 193 144.82 193 213.77 122 369.17 122"/>
        <path class="cls-9" d="M421.67,99.62c.07.15.13.31.19.46-.03-.1-.08-.21-.12-.31-.02-.05-.04-.1-.07-.15Z"/>
      </g>
      <g>
        <polygon class="cls-11" points="391 145.45 391 302.37 323 370.33 323 215.49 391 145.45"/>
        <path class="cls-9" d="M300.23,193l68.94-71h-.01l-68.93,71Z"/>
      </g>
      <path class="cls-7" d="M422.98,105.26c-.01-.29-.03-.58-.06-.87-.02-.19-.04-.37-.07-.56-.04-.34-.1-.68-.17-1.02-.04-.22-.1-.45-.15-.67-.12-.48-.26-.95-.43-1.42-.05-.16-.11-.32-.18-.48-.01-.05-.03-.11-.06-.16-.06-.15-.12-.31-.19-.46-.11-.27-.23-.52-.37-.78-.04-.09-.08-.18-.13-.27-.16-.31-.34-.62-.52-.92-.02-.03-.04-.07-.06-.1-.14-.22-.29-.44-.44-.65-.12-.2-.26-.38-.41-.57-.1-.14-.21-.28-.33-.42-.07-.1-.15-.2-.25-.29-.17-.22-.37-.43-.57-.64-.12-.14-.24-.26-.37-.37-.11-.12-.21-.22-.32-.31-.18-.18-.36-.34-.55-.49-.14-.13-.28-.24-.42-.35-.12-.1-.24-.19-.37-.28-.18-.15-.37-.28-.56-.4-.27-.19-.54-.37-.83-.53-.34-.21-.69-.4-1.05-.58-.35-.17-.71-.33-1.07-.48-.01-.01-.03-.01-.04-.02-.97-.39-1.97-.69-2.97-.88-.16-.03-.32-.06-.48-.08-.06-.02-.12-.02-.18-.03-.17-.03-.34-.05-.51-.07-.15-.02-.3-.03-.44-.05-.22-.02-.44-.03-.66-.04-.25,0-.49-.02-.74-.02h-200.03c-4.32,0-8.47,1.75-11.48,4.85l-99.8,102.77-.22.23c-.23.24-.45.48-.66.73-.14.15-.26.3-.38.46-.16.19-.31.39-.46.59-.17.24-.33.48-.49.73-.13.2-.25.4-.37.61-.12.2-.23.4-.33.6-.1.19-.19.37-.28.56-.08.16-.16.33-.22.5-.09.18-.16.35-.23.53s-.13.36-.2.54c-.02.06-.04.12-.06.18-.06.19-.13.39-.18.58-.01.02-.02.04-.02.05-.07.24-.13.47-.19.71-.06.25-.11.5-.16.75-.05.25-.09.5-.13.75-.11.76-.16,1.52-.16,2.28v199.94c0,8.84,7.16,16,16,16h200.02c.78,0,1.56-.06,2.33-.17.25-.04.51-.08.76-.13.26-.05.51-.1.76-.17.2-.05.39-.1.59-.16.61-.17,1.21-.38,1.79-.63.24-.1.48-.2.71-.32.42-.2.83-.42,1.23-.66.22-.13.45-.27.67-.42.22-.14.43-.29.65-.45.18-.14.36-.28.54-.42.44-.36.87-.74,1.28-1.15l.18-.18,99.82-99.76c3-3,4.69-7.07,4.69-11.32V106c0-.25-.01-.49-.02-.74ZM391,302.37l-68,67.96v-154.84l68-70.04v156.92ZM291,392.94H122.98v-167.94h168.02v167.94ZM369.17,122l-68.94,71h-155.41l68.95-71h155.4Z"/>
      <circle class="cls-1" cx="106.98" cy="408.94" r="50"/>
      <circle class="cls-4" cx="106.98" cy="209" r="50"/>
      <circle class="cls-6" cx="307" cy="209" r="50"/>
      <circle class="cls-8" cx="407" cy="106" r="50"/>
      <circle class="cls-5" cx="407" cy="309" r="50"/>
      <circle class="cls-3" cx="207" cy="106" r="50"/>
      <circle class="cls-2" cx="307" cy="408.94" r="50"/>
    </g>
  </g>
  <g id="frame">
    <rect class="cls-10" width="512" height="512"/>
  </g>
</svg>