<?xml version="1.0" encoding="UTF-8"?>
<svg id="uuid-c3872d23-fb1e-4dc6-ac57-f2397d268cc3" data-name="Ebene 2" xmlns="http://www.w3.org/2000/svg" width="512" height="512" xmlns:xlink="http://www.w3.org/1999/xlink" viewBox="0 0 512 512">
  <defs>
    <radialGradient id="uuid-c7fc0a41-14ec-4611-b736-6c94811a2c8d" data-name="MOST Gradient" cx="106.98" cy="408.94" fx="61.52" fy="400.12" r="50" gradientUnits="userSpaceOnUse">
      <stop offset="0" stop-color="#faca30"/>
      <stop offset=".27" stop-color="#f9c62a"/>
      <stop offset=".61" stop-color="#f9bb1b"/>
      <stop offset=".98" stop-color="#f9a901"/>
      <stop offset="1" stop-color="#f9a800"/>
    </radialGradient>
    <radialGradient id="uuid-d1251d7f-1016-4e4f-9ea7-1adc7476c736" data-name="MOST Gradient" cy="209" fy="200.17" xlink:href="#uuid-c7fc0a41-14ec-4611-b736-6c94811a2c8d"/>
    <radialGradient id="uuid-bc4b7def-deb3-4857-9ab9-2c75b7228cf6" data-name="MOST Gradient" cx="307" cy="209" fx="261.54" fy="200.17" xlink:href="#uuid-c7fc0a41-14ec-4611-b736-6c94811a2c8d"/>
    <radialGradient id="uuid-12027cab-1edb-4d4f-b2e4-ba1e13e8cd50" data-name="MOST Gradient" cx="407" cy="106" fx="361.54" fy="97.17" xlink:href="#uuid-c7fc0a41-14ec-4611-b736-6c94811a2c8d"/>
    <radialGradient id="uuid-fc2312ff-4f83-42b8-bf5b-3c0fca577473" data-name="MOST Gradient" cx="407" cy="309" fx="361.54" fy="300.17" xlink:href="#uuid-c7fc0a41-14ec-4611-b736-6c94811a2c8d"/>
    <radialGradient id="uuid-30d3d162-f777-4c3d-95a8-19037a87ee9a" data-name="MOST Gradient" cx="207" cy="106" fx="161.54" fy="97.17" xlink:href="#uuid-c7fc0a41-14ec-4611-b736-6c94811a2c8d"/>
    <radialGradient id="uuid-54235d05-1102-410d-8064-8846809aa287" data-name="MOST Gradient" cx="307" fx="261.54" xlink:href="#uuid-c7fc0a41-14ec-4611-b736-6c94811a2c8d"/>
  </defs>
  <g id="uuid-87e234ab-1b66-42c5-b28b-b6e7b8dc4674" data-name="measurements">
    <g id="uuid-a6b082fb-0aba-4f92-9643-932ebce8aca0" data-name="volume">
      <rect x="122.98" y="225" width="168.02" height="167.94" fill="#6400c8" stroke-width="0"/>
      <g>
        <polygon points="369.17 122 300.23 193 144.82 193 213.77 122 369.17 122" fill="#6400c8" stroke-width="0"/>
        <path d="M421.67,99.62c.07.15.13.31.19.46-.03-.1-.08-.21-.12-.31-.02-.05-.04-.1-.07-.15Z" fill="#ececec" stroke-width="0"/>
      </g>
      <g>
        <polygon points="391 145.45 391 302.37 323 370.33 323 215.49 391 145.45" fill="#6400c8" stroke-width="0"/>
        <path d="M300.23,193l68.94-71h-.01l-68.93,71Z" fill="#ececec" stroke-width="0"/>
      </g>
      <path d="M106.98,428.94c-11.03,0-20-8.97-20-20v-199.94c0-.97.07-1.93.2-2.85.06-.38.11-.68.17-.97.06-.29.12-.6.19-.9.03-.11.05-.21.08-.31v-.43l.29-.57c.02-.06.21-.64.21-.64,0,0,.19-.51.24-.63.09-.22.17-.44.28-.66.1-.24.21-.48.32-.7.08-.16.19-.39.32-.64.11-.22.27-.5.44-.79.11-.2.27-.46.44-.73.18-.28.37-.57.58-.86l.07-.09c.18-.23.35-.46.53-.68.16-.21.33-.42.51-.62.25-.29.51-.57.78-.85l100.04-103.02c3.74-3.85,8.97-6.06,14.35-6.06h200.03c.31,0,.6.01.9.02.3.01.58.03.86.05,0,0,.49.05.61.07.16.02.36.04.56.08.09.01.2.03.32.05.17.03.33.06.5.09,1.22.23,2.44.59,3.65,1.07l.75.25.09.09h.03s.04.06.04.06c.17.08.34.16.51.24.51.25.93.49,1.33.73.41.23.76.47,1.03.66.28.18.52.35.75.53.16.11.31.23.46.36.17.13.34.27.51.42.23.18.44.38.66.59.13.12.27.24.4.38.19.17.37.35.54.55.2.21.4.43.59.65.15.15.29.32.42.5.13.16.26.32.38.48.15.19.35.45.55.77.15.22.3.44.45.66l.06.08.1.16c.21.36.43.73.62,1.1.07.13.13.25.19.38.17.32.31.63.45.95.07.15.13.3.19.45.06.13.11.27.16.41.07.19.14.37.2.56.2.56.37,1.13.52,1.73l.06.25c.05.23.11.45.15.68.07.34.14.76.2,1.19.04.23.06.46.09.7.04.37.07.75.08,1.13.01.31.02.59.02.89v203c0,5.34-2.08,10.37-5.86,14.15l-100.01,99.95c-.46.46-.97.92-1.56,1.41l-.73.56c-.27.2-.53.38-.8.55-.28.19-.56.36-.84.52-.47.28-.98.55-1.49.8-.31.16-.62.29-.94.42-.7.3-1.48.58-2.27.8-.17.05-.4.11-.65.17-.34.09-.67.16-1.03.23-.26.05-.57.1-.87.15-1.06.15-2.03.22-2.98.22H106.98ZM287,388.94v-159.94H126.98v159.94h160.02ZM327,360.68l60-59.96v-145.4l-60,61.8v143.56ZM298.54,189l61.17-63h-144.25l-61.18,63h144.26Z" fill="#ececec" stroke="#000" stroke-miterlimit="10" stroke-width="12"/>
      <circle cx="106.98" cy="408.94" r="50" fill="url(#uuid-c7fc0a41-14ec-4611-b736-6c94811a2c8d)" stroke="#000" stroke-miterlimit="10" stroke-width="12"/>
      <circle cx="106.98" cy="209" r="50" fill="url(#uuid-d1251d7f-1016-4e4f-9ea7-1adc7476c736)" stroke="#000" stroke-miterlimit="10" stroke-width="12"/>
      <circle cx="307" cy="209" r="50" fill="url(#uuid-bc4b7def-deb3-4857-9ab9-2c75b7228cf6)" stroke="#000" stroke-miterlimit="10" stroke-width="12"/>
      <circle cx="407" cy="106" r="50" fill="url(#uuid-12027cab-1edb-4d4f-b2e4-ba1e13e8cd50)" stroke="#000" stroke-miterlimit="10" stroke-width="12"/>
      <circle cx="407" cy="309" r="50" fill="url(#uuid-fc2312ff-4f83-42b8-bf5b-3c0fca577473)" stroke="#000" stroke-miterlimit="10" stroke-width="12"/>
      <circle cx="207" cy="106" r="50" fill="url(#uuid-30d3d162-f777-4c3d-95a8-19037a87ee9a)" stroke="#000" stroke-miterlimit="10" stroke-width="12"/>
      <circle cx="307" cy="408.94" r="50" fill="url(#uuid-54235d05-1102-410d-8064-8846809aa287)" stroke="#000" stroke-miterlimit="10" stroke-width="12"/>
    </g>
  </g>
  <g id="uuid-0fdcdab7-026e-42e1-b400-0570cd7f5f99" data-name="frame">
    <rect width="512" height="512" fill="none" stroke-width="0"/>
  </g>
</svg>