<?xml version="1.0" encoding="UTF-8"?>
<svg id="uuid-0ce17f79-56aa-4363-a638-ac505bc6f33e" data-name="Ebene 2" xmlns="http://www.w3.org/2000/svg" width="64" height="64" viewBox="0 0 64 64">
  <defs>
    <style>
      .uuid-621d0f45-c7aa-4ccc-9c8e-bf64224edf7b {
        fill: none;
      }

      .uuid-621d0f45-c7aa-4ccc-9c8e-bf64224edf7b, .uuid-e7a73768-ae59-4a19-9ec4-96a5aea211e5 {
        stroke-width: 0px;
      }

      .uuid-e7a73768-ae59-4a19-9ec4-96a5aea211e5 {
        fill: #fff;
      }
    </style>
  </defs>
  <g id="uuid-06c022ad-5a06-44a3-8843-63be18032714" data-name="Ebene 1">
    <rect class="uuid-621d0f45-c7aa-4ccc-9c8e-bf64224edf7b" width="64" height="64"/>
    <g id="uuid-d1fe88c0-6ff9-4a32-924c-08a09454fb5a" data-name="uuid-955ec437-f5e2-437c-9d75-66a71b6fd07b">
      <path class="uuid-e7a73768-ae59-4a19-9ec4-96a5aea211e5" d="m59,54.66c-.33,1.17-.85,2.22-1.83,3-1.88,1.51-5.36,1.42-7.16-.34-.18-.17-.35-.34-.53-.52-5.59-5.59-11.18-11.18-16.76-16.76-.5-.5-1.01-.5-1.52.02-5.67,5.67-11.37,11.33-17.01,17.04-1.73,1.75-4.59,1.98-6.45,1.14-2.93-1.33-3.66-5.36-1.42-7.86.15-.17.32-.33.48-.49,5.8-5.8,11.6-11.6,17.4-17.4.33-.33.33-.65.01-.97-5.8-5.8-11.6-11.59-17.39-17.4-1.47-1.47-1.92-3.25-1.29-5.23.62-1.94,1.99-3.13,3.98-3.51,1.72-.32,3.28.14,4.55,1.39,2.85,2.83,5.7,5.68,8.55,8.51,2.99,2.97,5.99,5.93,8.96,8.92.39.39.59.35.95-.02,5.72-5.75,11.46-11.49,17.2-17.22,2.48-2.48,6.45-1.97,8.2,1.03,1.14,1.96.81,4.52-.79,6.12-5.76,5.76-11.52,11.52-17.28,17.29-.6.6-.55.47.01,1.03,5.74,5.71,11.47,11.42,17.23,17.11.92.91,1.64,1.92,1.92,3.2v1.9h0Z"/>
    </g>
  </g>
</svg>