<?xml version="1.0" encoding="UTF-8"?>
<svg id="uuid-e3da8cc5-6234-499c-af2d-a2aad30575eb" data-name="Ebene 2" xmlns="http://www.w3.org/2000/svg" width="64" height="64" viewBox="0 0 64 64">
  <defs>
    <style>
      .uuid-2c8aba2f-9d90-48e5-a40d-8482caa9caba {
        fill: none;
      }

      .uuid-2c8aba2f-9d90-48e5-a40d-8482caa9caba, .uuid-8f33af2b-1150-4f34-ad61-bf1baf63af6a {
        stroke-width: 0px;
      }

      .uuid-8f33af2b-1150-4f34-ad61-bf1baf63af6a {
        fill: #fff;
      }
    </style>
  </defs>
  <g id="uuid-e1c8a81f-675f-4a11-9043-1c68e63cfdd0" data-name="Ebene 1">
    <rect class="uuid-2c8aba2f-9d90-48e5-a40d-8482caa9caba" width="64" height="64"/>
    <g id="uuid-3667de23-f7e1-4351-84fa-e907089ae285" data-name="uuid-efa38f0d-94bb-4a5a-9f7a-644974732dc3">
      <g>
        <path class="uuid-8f33af2b-1150-4f34-ad61-bf1baf63af6a" d="m59,51.15c-.16.36-.39.66-.67.93-2.07,2.06-4.12,4.12-6.19,6.18-.99.99-1.87.98-2.86-.01-2.79-2.79-5.59-5.59-8.38-8.38-.6-.6-.48-.58-1.08.02-1.24,1.24-2.48,2.49-3.73,3.72-1.08,1.07-2.44.76-2.92-.68-2.94-8.81-5.87-17.62-8.81-26.43-.23-.7-.2-1.32.33-1.85.54-.55,1.17-.59,1.89-.35,8.79,2.94,17.59,5.86,26.38,8.8,1.48.49,1.81,1.84.71,2.94-1.29,1.3-2.57,2.59-3.88,3.87-.31.3-.32.48,0,.8,2.81,2.78,5.59,5.58,8.39,8.38.31.31.61.63.83,1.01v1.05h0Z"/>
        <path class="uuid-8f33af2b-1150-4f34-ad61-bf1baf63af6a" d="m26.12,4.99c.8.39,1.11,1.02,1.1,1.91-.03,3.05,0,6.1-.02,9.16,0,.84-.59,1.51-1.38,1.61-.82.1-1.57-.36-1.79-1.14-.06-.23-.06-.48-.06-.73,0-2.96.02-5.93-.02-8.89,0-.9.31-1.52,1.1-1.91h1.05Z"/>
        <path class="uuid-8f33af2b-1150-4f34-ad61-bf1baf63af6a" d="m12.16,10.49c.45.02.85.17,1.18.5,2.22,2.22,4.45,4.44,6.66,6.67.7.7.68,1.71.01,2.36-.66.63-1.63.62-2.32-.06-2.23-2.21-4.45-4.44-6.67-6.66-.51-.51-.62-1.13-.35-1.79.26-.66.8-.94,1.48-1.01h0Z"/>
        <path class="uuid-8f33af2b-1150-4f34-ad61-bf1baf63af6a" d="m12.16,40.59c-.66-.06-1.2-.33-1.47-.99-.28-.69-.16-1.31.37-1.84,1.64-1.64,3.28-3.28,4.91-4.92.57-.57,1.13-1.15,1.71-1.71.72-.69,1.7-.7,2.36-.04.65.66.64,1.65-.06,2.36-2.2,2.22-4.42,4.42-6.62,6.63-.33.33-.72.49-1.19.51h0Z"/>
        <path class="uuid-8f33af2b-1150-4f34-ad61-bf1baf63af6a" d="m39.02,10.49c.6.05,1.11.27,1.41.84.3.58.29,1.15-.07,1.7-.08.12-.17.22-.27.32-2.2,2.2-4.39,4.39-6.59,6.59-.47.47-1.04.65-1.68.44-.65-.21-1.02-.67-1.13-1.33-.09-.52.07-.98.44-1.35,2.24-2.25,4.49-4.5,6.74-6.74.31-.31.7-.46,1.16-.48Z"/>
        <path class="uuid-8f33af2b-1150-4f34-ad61-bf1baf63af6a" d="m11.36,27.16c-1.53,0-3.06,0-4.58,0-1.09,0-1.79-.65-1.78-1.64,0-.95.71-1.59,1.77-1.59,3.06,0,6.11,0,9.17,0,1.09,0,1.79.65,1.78,1.64-.01.96-.71,1.59-1.77,1.59-1.53,0-3.06,0-4.58,0h0Z"/>
      </g>
    </g>
  </g>
</svg>