<?xml version="1.0" encoding="utf-8"?>
<!-- Generator: Adobe Illustrator 28.1.0, SVG Export Plug-In . SVG Version: 6.00 Build 0)  -->
<svg version="1.1" id="uuid-e3da8cc5-6234-499c-af2d-a2aad30575eb"
	 xmlns="http://www.w3.org/2000/svg" xmlns:xlink="http://www.w3.org/1999/xlink" x="0px" y="0px" viewBox="0 0 64 64"
	 style="enable-background:new 0 0 64 64;" xml:space="preserve">
<style type="text/css">
	.st0{fill:none;}
</style>
<g id="uuid-e1c8a81f-675f-4a11-9043-1c68e63cfdd0">
	<rect class="st0" width="64" height="64"/>
	<g id="uuid-3667de23-f7e1-4351-84fa-e907089ae285">
		<g>
			<path d="M59,51.2c-0.2,0.4-0.4,0.7-0.7,0.9c-2.1,2.1-4.1,4.1-6.2,6.2c-1,1-1.9,1-2.9,0c-2.8-2.8-5.6-5.6-8.4-8.4
				c-0.6-0.6-0.5-0.6-1.1,0c-1.2,1.2-2.5,2.5-3.7,3.7c-1.1,1.1-2.4,0.8-2.9-0.7c-2.9-8.8-5.9-17.6-8.8-26.4
				c-0.2-0.7-0.2-1.3,0.3-1.9c0.5-0.5,1.2-0.6,1.9-0.4c8.8,2.9,17.6,5.9,26.4,8.8c1.5,0.5,1.8,1.8,0.7,2.9c-1.3,1.3-2.6,2.6-3.9,3.9
				c-0.3,0.3-0.3,0.5,0,0.8c2.8,2.8,5.6,5.6,8.4,8.4c0.3,0.3,0.6,0.6,0.8,1L59,51.2L59,51.2L59,51.2z"/>
			<path d="M26.1,5c0.8,0.4,1.1,1,1.1,1.9c0,3.1,0,6.1,0,9.2c0,0.8-0.6,1.5-1.4,1.6c-0.8,0.1-1.6-0.4-1.8-1.1
				C24,16.3,24,16.1,24,15.8c0-3,0-5.9,0-8.9C24,6,24.3,5.4,25.1,5L26.1,5L26.1,5z"/>
			<path d="M12.2,10.5c0.4,0,0.9,0.2,1.2,0.5c2.2,2.2,4.5,4.4,6.7,6.7c0.7,0.7,0.7,1.7,0,2.4c-0.7,0.6-1.6,0.6-2.3-0.1
				c-2.2-2.2-4.4-4.4-6.7-6.7c-0.5-0.5-0.6-1.1-0.4-1.8C10.9,10.9,11.5,10.6,12.2,10.5L12.2,10.5L12.2,10.5z"/>
			<path d="M12.2,40.6c-0.7-0.1-1.2-0.3-1.5-1c-0.3-0.7-0.2-1.3,0.4-1.8c1.6-1.6,3.3-3.3,4.9-4.9c0.6-0.6,1.1-1.1,1.7-1.7
				c0.7-0.7,1.7-0.7,2.4,0c0.6,0.7,0.6,1.7-0.1,2.4c-2.2,2.2-4.4,4.4-6.6,6.6C13,40.4,12.6,40.6,12.2,40.6L12.2,40.6L12.2,40.6z"/>
			<path d="M39,10.5c0.6,0.1,1.1,0.3,1.4,0.8c0.3,0.6,0.3,1.1-0.1,1.7c-0.1,0.1-0.2,0.2-0.3,0.3c-2.2,2.2-4.4,4.4-6.6,6.6
				c-0.5,0.5-1,0.6-1.7,0.4c-0.6-0.2-1-0.7-1.1-1.3c-0.1-0.5,0.1-1,0.4-1.4c2.2-2.2,4.5-4.5,6.7-6.7C38.2,10.6,38.6,10.5,39,10.5
				L39,10.5z"/>
			<path d="M11.4,27.2c-1.5,0-3.1,0-4.6,0c-1.1,0-1.8-0.6-1.8-1.6c0-1,0.7-1.6,1.8-1.6c3.1,0,6.1,0,9.2,0c1.1,0,1.8,0.6,1.8,1.6
				c0,1-0.7,1.6-1.8,1.6C14.4,27.2,12.9,27.2,11.4,27.2L11.4,27.2L11.4,27.2z"/>
		</g>
	</g>
</g>
</svg>
