<?xml version="1.0" encoding="UTF-8"?>
<svg id="uuid-2dabb6dd-49f0-4392-af60-7bdfd5ccce5a" data-name="Ebene 2" xmlns="http://www.w3.org/2000/svg" width="64" height="64" xmlns:xlink="http://www.w3.org/1999/xlink" viewBox="0 0 64 64">
  <defs>
    <style>
      .uuid-ed687abd-ae05-46ee-9ba6-9e3f4dd56f78 {
        fill: none;
      }

      .uuid-ed687abd-ae05-46ee-9ba6-9e3f4dd56f78, .uuid-f8d053bf-8579-465b-882a-e95574aab987, .uuid-eb1133b7-d098-4e71-aa04-2d3302c9162c {
        stroke-width: 0px;
      }

      .uuid-f8d053bf-8579-465b-882a-e95574aab987 {
        fill: #fff;
      }

      .uuid-eb1133b7-d098-4e71-aa04-2d3302c9162c {
        fill: url(#uuid-9dafbb1d-c595-45db-913d-e566f0c25bd9);
      }
    </style>
    <linearGradient id="uuid-9dafbb1d-c595-45db-913d-e566f0c25bd9" data-name="Unbenannter Verlauf 3" x1="18.37" y1="11.18" x2="28.61" y2="17.09" gradientUnits="userSpaceOnUse">
      <stop offset="0" stop-color="#faca30"/>
      <stop offset="1" stop-color="#f7b500"/>
    </linearGradient>
  </defs>
  <g id="uuid-a0d10bfb-a278-46b3-9a50-f2c10c210bfb" data-name="Ebene 1">
    <rect class="uuid-ed687abd-ae05-46ee-9ba6-9e3f4dd56f78" width="64" height="64"/>
    <path class="uuid-f8d053bf-8579-465b-882a-e95574aab987" d="m34.41,5c1.64.33,3.26.7,4.76,1.45,5.69,2.81,9.03,7.33,9.92,13.64.08.58.07,1.15.11,1.73.03.46-.14.61-.6.61-2.32-.02-4.63,0-6.95,0-.95,0-1.89-.01-2.84,0-.41,0-.55-.14-.55-.55.01-1.07.07-2.14-.19-3.19-.55-2.17-1.89-3.65-3.97-4.43-.44-.17-.59-.37-.58-.83.02-2.63,0-5.26.01-7.89,0-.17.02-.35.04-.52.28,0,.56,0,.84,0Z"/>
    <path class="uuid-eb1133b7-d098-4e71-aa04-2d3302c9162c" d="m30.41,5c.01,1.24.03,2.49.04,3.73,0,1.6,0,3.19,0,4.79,0,.38-.13.56-.48.68-2.66.97-4.25,3.25-4.27,6.08,0,.51-.02,1.02,0,1.53.03.46-.14.61-.6.61-2.37-.02-4.74,0-7.1,0-.88,0-1.75-.02-2.63,0-.46.01-.61-.15-.6-.61.21-6.25,3.01-11.02,8.23-14.39,1.91-1.23,4.03-1.96,6.27-2.34.1-.02.2-.05.3-.08.28,0,.56,0,.84,0Z"/>
    <path class="uuid-f8d053bf-8579-465b-882a-e95574aab987" d="m14.78,34.56c0-2.77,0-5.55,0-8.32,0-.79,0-.79.78-.8,3.14,0,6.29.01,9.43-.01.55,0,.79.15.92.71.61,2.63,2.68,4.47,5.35,4.83,2.45.33,4.94-.95,6.22-3.21.31-.54.53-1.12.63-1.72.08-.5.33-.61.79-.61,2.35.02,4.7,0,7.06,0,.9,0,1.79.01,2.69,0,.43,0,.58.15.58.59-.01,5.58.07,11.17-.05,16.75-.08,3.85-1.57,7.25-4.07,10.17-2.83,3.3-6.43,5.3-10.74,5.9-7.49,1.04-14.69-2.89-17.95-9.73-1.05-2.22-1.63-4.55-1.63-7.02,0-2.51,0-5.02,0-7.53h0Z"/>
    <path class="uuid-f8d053bf-8579-465b-882a-e95574aab987" d="m28.79,22.4c0-.79,0-1.58,0-2.37.02-1.73,1.44-3.13,3.17-3.15,1.74-.02,3.2,1.4,3.22,3.15.02,1.6.02,3.19,0,4.79-.02,1.73-1.44,3.12-3.17,3.15-1.74.02-3.2-1.4-3.22-3.15-.01-.81,0-1.61,0-2.42Z"/>
  </g>
</svg>